<?xml version="1.0" standalone="no"?>
<!DOCTYPE svg PUBLIC "-//W3C//DTD SVG 20010904//EN"
 "http://www.w3.org/TR/2001/REC-SVG-20010904/DTD/svg10.dtd">
<svg version="1.0" xmlns="http://www.w3.org/2000/svg"
 width="512.000000pt" height="512.000000pt" viewBox="0 0 512.000000 512.000000"
 preserveAspectRatio="xMidYMid meet">

<g transform="translate(0.000000,512.000000) scale(0.100000,-0.100000)"
fill="#000000" stroke="none">
<path d="M1183 5079 c-281 -149 -565 -379 -796 -643 -63 -72 -77 -95 -77 -121
0 -24 7 -39 26 -54 49 -38 75 -26 161 74 79 92 238 247 338 330 95 79 299 217
408 275 84 45 107 70 107 111 0 30 -40 69 -70 69 -10 0 -54 -19 -97 -41z"/>
<path d="M2523 5100 c-46 -19 -56 -78 -20 -114 21 -21 36 -24 148 -30 225 -13
413 -45 598 -101 47 -14 94 -25 107 -25 29 0 62 29 69 60 15 62 -58 98 -315
156 -189 43 -538 75 -587 54z"/>
<path d="M3620 4818 c-22 -24 -26 -58 -10 -88 5 -10 45 -38 87 -61 43 -24 122
-71 175 -106 54 -35 105 -63 113 -63 20 0 57 19 67 34 16 23 8 73 -14 93 -75
67 -328 213 -371 213 -14 0 -35 -10 -47 -22z"/>
<path d="M2317 4776 c-100 -10 -111 -13 -133 -39 -30 -35 -30 -59 0 -93 l23
-28 134 12 c74 7 158 12 187 12 43 0 58 5 77 25 14 13 25 36 25 50 0 14 -11
37 -25 50 -22 23 -32 25 -102 24 -43 -1 -127 -7 -186 -13z"/>
<path d="M1840 4671 c-322 -115 -582 -273 -814 -492 -380 -360 -613 -815 -682
-1334 -17 -129 -19 -415 -4 -541 57 -474 262 -919 577 -1255 43 -44 86 -85 98
-89 26 -9 73 7 85 30 23 42 11 69 -66 152 -295 320 -479 705 -539 1129 -19
135 -22 405 -5 534 89 695 499 1286 1115 1603 106 54 226 105 300 126 86 25
121 44 133 71 22 48 -21 106 -76 104 -9 0 -64 -17 -122 -38z"/>
<path d="M1055 4618 c-50 -28 -220 -176 -317 -274 -155 -158 -248 -278 -248
-320 0 -42 30 -74 68 -74 31 0 57 25 164 155 78 95 246 258 345 335 89 69 107
96 92 139 -17 48 -60 64 -104 39z"/>
<path d="M2315 4455 c-373 -52 -704 -196 -985 -430 -252 -210 -482 -542 -580
-839 -29 -90 -29 -115 4 -143 56 -48 100 -16 141 102 39 113 134 301 204 403
346 503 915 793 1511 769 448 -19 804 -164 1140 -468 47 -42 95 -79 106 -83
52 -16 105 44 85 95 -11 30 -111 124 -226 214 -244 190 -544 319 -860 370
-139 23 -415 28 -540 10z"/>
<path d="M4165 4445 c-46 -45 -36 -65 100 -206 201 -207 331 -395 454 -649
141 -294 213 -583 230 -915 8 -163 17 -185 78 -185 60 0 73 25 73 138 0 191
-42 459 -105 665 -122 402 -326 746 -620 1045 -143 145 -163 155 -210 107z"/>
<path d="M4016 4138 c-31 -44 -21 -72 60 -160 301 -330 479 -707 540 -1143 20
-150 15 -482 -10 -620 -80 -436 -276 -817 -575 -1115 -239 -239 -462 -379
-809 -510 -46 -18 -86 -40 -92 -50 -27 -50 5 -110 59 -110 43 0 209 63 351
133 534 263 942 731 1128 1292 103 308 138 672 97 992 -60 460 -262 891 -575
1226 -75 80 -85 87 -120 87 -29 0 -43 -6 -54 -22z"/>
<path d="M169 4140 c-16 -9 -103 -149 -143 -227 -34 -67 -9 -126 54 -126 39 0
54 14 98 92 20 36 51 90 69 120 41 67 42 102 7 130 -29 23 -59 26 -85 11z"/>
<path d="M2340 4135 c-694 -95 -1240 -630 -1356 -1327 -21 -122 -21 -374 0
-496 73 -443 319 -825 690 -1074 598 -400 1387 -347 1931 130 236 207 414 498
490 802 62 245 62 535 0 780 -125 500 -506 924 -987 1100 -244 90 -516 120
-768 85z m391 -146 c224 -29 423 -103 609 -225 305 -200 515 -491 609 -844 58
-220 58 -500 0 -720 -94 -353 -305 -645 -609 -844 -572 -375 -1319 -296 -1804
190 -561 562 -561 1466 0 2028 271 272 623 421 1005 425 58 1 144 -4 190 -10z"/>
<path d="M682 2845 c-22 -28 -31 -87 -34 -222 -3 -107 11 -133 69 -133 53 0
70 26 77 117 4 43 9 107 12 143 5 57 3 69 -16 93 -29 36 -80 38 -108 2z"/>
<path d="M30 2610 c-17 -17 -20 -33 -20 -122 0 -324 98 -722 255 -1043 73
-147 201 -357 234 -382 24 -19 69 -15 91 7 33 33 26 77 -27 155 -162 240 -284
525 -347 807 -34 150 -45 239 -55 415 -6 117 -11 146 -26 163 -24 26 -78 27
-105 0z"/>
<path d="M4341 2611 c-21 -21 -27 -55 -36 -207 -5 -92 -4 -103 16 -128 17 -22
28 -26 57 -24 62 5 74 34 80 197 4 126 3 143 -13 161 -24 26 -79 26 -104 1z"/>
<path d="M4268 2064 c-20 -10 -34 -35 -58 -101 -257 -713 -956 -1188 -1705
-1160 -219 9 -359 35 -550 104 -211 76 -397 186 -565 335 -75 67 -107 81 -141
64 -33 -16 -52 -58 -40 -88 5 -12 42 -52 82 -88 406 -360 946 -529 1490 -465
556 65 1061 378 1372 850 69 105 163 294 203 412 l29 82 -21 27 c-26 35 -63
46 -96 28z"/>
<path d="M5003 1345 c-12 -9 -47 -59 -77 -113 -31 -53 -64 -110 -76 -127 -39
-59 -11 -135 51 -135 35 1 52 17 107 106 102 164 121 223 85 257 -28 24 -65
30 -90 12z"/>
<path d="M4503 1153 c-11 -10 -58 -65 -105 -123 -92 -113 -226 -246 -341 -337
-120 -95 -137 -113 -137 -149 0 -36 37 -74 73 -74 12 0 64 33 116 72 215 164
511 486 511 555 0 63 -72 96 -117 56z"/>
<path d="M690 967 c-35 -17 -51 -53 -39 -86 22 -59 341 -351 383 -351 39 0 76
37 76 75 0 29 -10 42 -77 101 -43 37 -123 111 -178 165 -55 53 -109 100 -120
103 -11 3 -31 0 -45 -7z"/>
<path d="M4694 867 c-11 -7 -52 -48 -91 -92 -205 -234 -480 -457 -728 -591
-94 -50 -115 -70 -115 -110 0 -35 37 -74 70 -74 24 0 157 72 273 147 206 133
400 297 562 473 142 154 158 188 110 235 -27 27 -49 31 -81 12z"/>
<path d="M1221 484 c-40 -51 -22 -85 76 -140 259 -145 543 -246 823 -294 141
-24 398 -45 445 -36 62 12 85 77 42 120 -20 20 -36 24 -145 30 -391 22 -714
110 -1038 282 -137 72 -171 78 -203 38z"/>
<path d="M2735 490 c-33 -4 -93 -8 -133 -9 -63 -1 -76 -4 -97 -26 -32 -31 -32
-69 1 -102 26 -26 26 -26 148 -19 192 10 247 21 274 51 27 32 28 55 1 89 -18
23 -27 26 -77 25 -31 -1 -84 -5 -117 -9z"/>
</g>
</svg>
