<svg xmlns="http://www.w3.org/2000/svg" preserveAspectRatio="none" viewBox="0 0 1 1" width="943.7392441406249" height="111.65267944335938">
<rect x="0" y="0" width="100%" height="100%" fill="#222222" /><g transform="matrix(0.0010596147253689831,-0,-0,0.008956345740966234,-0.42291240372228345,-2.513865143694301)"><defs></defs><g transform="matrix(
1,0,0,1,0,0)" style="mix-blend-mode: normal; opacity: 1"><g transform="matrix(
1920,0,-0,1080,0,0)" style="mix-blend-mode: normal; opacity: 1"><g transform="matrix(
0.0005208333333333333,-0,-0,0.000925925925925926,-0,-0)"><path d="M0,0L0,1080L1920,1080L1920,0Z"  fill="#edfafa" /></g></g></g><defs></defs><g transform="matrix(
1,0,0,1,0,0)" style="mix-blend-mode: normal; opacity: 1"><g transform="matrix(
1,0,0,1,0,0)" style="mix-blend-mode: normal; opacity: 1"><g transform="matrix(
4,0,0,4,399.11903222656247,287.552001953125)" style="mix-blend-mode: normal; opacity: 1"><g transform="matrix(
0.25,-0,-0,0.25,-99.77975805664062,-71.88800048828125)"><path d="M424.8470322265625,364.4580793011913L424.8470322265625,302.82607930119127L402.7670322265625,302.82607930119127L402.7670322265625,297.2580793011913L452.97503222656246,297.2580793011913L452.97503222656246,302.82607930119127L430.8950322265625,302.82607930119127L430.8950322265625,364.4580793011913L424.8470322265625,364.4580793011913ZM463.63103222656247,364.4580793011913L463.63103222656247,295.14607930119126L469.48703222656246,295.14607930119126L469.48703222656246,325.0020793011913Q471.5030322265625,321.7380793011913 475.19903222656245,319.5300793011913Q478.8950322265625,317.3220793011913 483.5990322265625,317.3220793011913Q490.9910322265625,317.3220793011913 495.5030322265625,322.0260793011913Q500.0150322265625,326.73007930119127 500.0150322265625,335.4660793011913L500.0150322265625,364.4580793011913L494.25503222656243,364.4580793011913L494.25503222656243,336.3300793011913Q494.25503222656243,329.61007930119126 491.0390322265625,326.2500793011913Q487.8230322265625,322.8900793011913 482.73503222656245,322.8900793011913Q478.8950322265625,322.8900793011913 475.8710322265625,324.5700793011913Q472.8470322265625,326.2500793011913 471.16703222656247,329.0820793011913Q469.48703222656246,331.9140793011913 469.48703222656246,335.3700793011913L469.48703222656246,364.4580793011913L463.63103222656247,364.4580793011913ZM533.1350322265625,365.51407930119126Q526.8950322265625,365.51407930119126 522.0470322265625,362.58607930119126Q517.1990322265625,359.65807930119126 514.4630322265625,354.2340793011913Q511.72703222656247,348.8100793011913 511.72703222656247,341.4180793011913Q511.72703222656247,334.21807930119127 514.4630322265625,328.8420793011913Q517.1990322265625,323.4660793011913 521.9990322265625,320.4420793011913Q526.7990322265625,317.4180793011913 532.9430322265625,317.4180793011913Q539.1830322265624,317.4180793011913 543.5510322265625,320.53807930119126Q547.9190322265624,323.65807930119126 550.2230322265625,328.6020793011913Q552.5270322265625,333.5460793011913 552.5270322265625,339.0180793011913L552.5270322265625,340.9380793011913L517.5830322265624,340.9380793011913Q517.3910322265625,349.5780793011913 521.6630322265624,354.9060793011913Q525.9350322265625,360.2340793011913 533.2310322265624,360.2340793011913Q538.6070322265625,360.2340793011913 542.2550322265624,357.4980793011913Q545.9030322265625,354.7620793011913 548.2070322265624,349.3860793011913L553.0070322265625,352.1700793011913Q546.8630322265625,365.51407930119126 533.1350322265625,365.51407930119126ZM517.9670322265624,335.9460793011913L546.7670322265625,335.9460793011913Q546.2870322265625,332.2020793011913 544.4150322265625,329.1300793011913Q542.5430322265624,326.0580793011913 539.6150322265624,324.2340793011913Q536.6870322265625,322.4100793011913 532.9430322265625,322.4100793011913Q527.0870322265624,322.4100793011913 523.1030322265625,326.0100793011913Q519.1190322265625,329.61007930119126 517.9670322265624,335.9460793011913ZM565.5830322265624,364.4580793011913L565.5830322265624,297.2580793011913L571.4390322265624,297.2580793011913L571.4390322265624,326.53807930119126L609.0710322265625,326.53807930119126L609.0710322265625,297.2580793011913L615.0230322265625,297.2580793011913L615.0230322265625,364.4580793011913L609.0710322265625,364.4580793011913L609.0710322265625,332.1060793011913L571.4390322265624,332.1060793011913L571.4390322265624,364.4580793011913L565.5830322265624,364.4580793011913ZM631.8230322265624,364.4580793011913L631.8230322265624,318.4740793011913L637.5830322265625,318.4740793011913L637.5830322265625,364.4580793011913L631.8230322265624,364.4580793011913ZM634.7030322265625,308.4900793011913Q632.8790322265625,308.4900793011913 631.5350322265625,307.19407930119127Q630.1910322265625,305.8980793011913 630.1910322265625,304.0740793011913Q630.1910322265625,302.1540793011913 631.5350322265625,300.9060793011913Q632.8790322265625,299.65807930119126 634.7030322265625,299.65807930119126Q636.5270322265625,299.65807930119126 637.7750322265624,300.9060793011913Q639.0230322265625,302.1540793011913 639.0230322265625,304.0740793011913Q639.0230322265625,305.8980793011913 637.7750322265624,307.19407930119127Q636.5270322265625,308.4900793011913 634.7030322265625,308.4900793011913ZM671.3750322265626,385.1940793011913Q658.6070322265625,385.1940793011913 652.1750322265625,375.2100793011913L656.9750322265625,372.0420793011913Q661.7750322265624,379.6260793011913 671.3750322265626,379.6260793011913Q678.4790322265625,379.6260793011913 682.2230322265625,374.9700793011913Q685.9670322265624,370.31407930119127 685.9670322265624,361.0020793011913L685.9670322265624,352.7460793011913Q683.5670322265626,356.49007930119126 679.7270322265624,358.6500793011913Q675.8870322265625,360.8100793011913 670.9910322265625,360.8100793011913Q665.1350322265625,360.8100793011913 660.5750322265625,358.1220793011913Q656.0150322265624,355.4340793011913 653.3750322265624,350.53807930119126Q650.7350322265625,345.6420793011913 650.7350322265625,339.0180793011913Q650.7350322265625,332.3940793011913 653.3750322265624,327.5460793011913Q656.0150322265624,322.6980793011913 660.5750322265625,320.0100793011913Q665.1350322265625,317.3220793011913 670.9910322265625,317.3220793011913Q675.9830322265625,317.3220793011913 679.9190322265624,319.5780793011913Q683.8550322265625,321.8340793011913 686.2550322265624,325.7700793011913L686.3510322265624,318.4740793011913L691.7270322265624,318.4740793011913L691.7270322265624,361.0020793011913Q691.7270322265624,373.4820793011913 686.1110322265624,379.33807930119127Q680.4950322265624,385.1940793011913 671.3750322265626,385.1940793011913ZM671.2790322265625,355.4340793011913Q675.5990322265625,355.4340793011913 678.9590322265625,353.3700793011913Q682.3190322265625,351.3060793011913 684.2390322265625,347.61007930119126Q686.1590322265624,343.9140793011913 686.1590322265624,339.0180793011913Q686.1590322265624,334.1220793011913 684.2390322265625,330.4740793011913Q682.3190322265625,326.82607930119127 678.9590322265625,324.7620793011913Q675.5990322265625,322.6980793011913 671.2790322265625,322.6980793011913Q667.0550322265625,322.6980793011913 663.7430322265625,324.7620793011913Q660.4310322265625,326.82607930119127 658.5110322265625,330.4740793011913Q656.5910322265624,334.1220793011913 656.5910322265624,339.0180793011913Q656.5910322265624,343.9140793011913 658.5110322265625,347.61007930119126Q660.4310322265625,351.3060793011913 663.7430322265625,353.3700793011913Q667.0550322265625,355.4340793011913 671.2790322265625,355.4340793011913ZM724.0790322265625,385.1940793011913Q711.3110322265625,385.1940793011913 704.8790322265625,375.2100793011913L709.6790322265624,372.0420793011913Q714.4790322265625,379.6260793011913 724.0790322265625,379.6260793011913Q731.1830322265624,379.6260793011913 734.9270322265625,374.9700793011913Q738.6710322265625,370.31407930119127 738.6710322265625,361.0020793011913L738.6710322265625,352.7460793011913Q736.2710322265625,356.49007930119126 732.4310322265625,358.6500793011913Q728.5910322265624,360.8100793011913 723.6950322265625,360.8100793011913Q717.8390322265625,360.8100793011913 713.2790322265624,358.1220793011913Q708.7190322265624,355.4340793011913 706.0790322265625,350.53807930119126Q703.4390322265624,345.6420793011913 703.4390322265624,339.0180793011913Q703.4390322265624,332.3940793011913 706.0790322265625,327.5460793011913Q708.7190322265624,322.6980793011913 713.2790322265624,320.0100793011913Q717.8390322265625,317.3220793011913 723.6950322265625,317.3220793011913Q728.6870322265625,317.3220793011913 732.6230322265625,319.5780793011913Q736.5590322265625,321.8340793011913 738.9590322265624,325.7700793011913L739.0550322265624,318.4740793011913L744.4310322265625,318.4740793011913L744.4310322265625,361.0020793011913Q744.4310322265625,373.4820793011913 738.8150322265624,379.33807930119127Q733.1990322265624,385.1940793011913 724.0790322265625,385.1940793011913ZM723.9830322265625,355.4340793011913Q728.3030322265624,355.4340793011913 731.6630322265624,353.3700793011913Q735.0230322265625,351.3060793011913 736.9430322265625,347.61007930119126Q738.8630322265624,343.9140793011913 738.8630322265624,339.0180793011913Q738.8630322265624,334.1220793011913 736.9430322265625,330.4740793011913Q735.0230322265625,326.82607930119127 731.6630322265624,324.7620793011913Q728.3030322265624,322.6980793011913 723.9830322265625,322.6980793011913Q719.7590322265625,322.6980793011913 716.4470322265624,324.7620793011913Q713.1350322265625,326.82607930119127 711.2150322265625,330.4740793011913Q709.2950322265624,334.1220793011913 709.2950322265624,339.0180793011913Q709.2950322265624,343.9140793011913 711.2150322265625,347.61007930119126Q713.1350322265625,351.3060793011913 716.4470322265624,353.3700793011913Q719.7590322265625,355.4340793011913 723.9830322265625,355.4340793011913ZM758.7350322265625,364.4580793011913L758.7350322265625,295.14607930119126L764.5910322265624,295.14607930119126L764.5910322265624,364.4580793011913L758.7350322265625,364.4580793011913ZM797.7110322265626,365.51407930119126Q791.4710322265626,365.51407930119126 786.6230322265625,362.58607930119126Q781.7750322265624,359.65807930119126 779.0390322265625,354.2340793011913Q776.3030322265624,348.8100793011913 776.3030322265624,341.4180793011913Q776.3030322265624,334.21807930119127 779.0390322265625,328.8420793011913Q781.7750322265624,323.4660793011913 786.5750322265625,320.4420793011913Q791.3750322265626,317.4180793011913 797.5190322265626,317.4180793011913Q803.7590322265626,317.4180793011913 808.1270322265625,320.53807930119126Q812.4950322265624,323.65807930119126 814.7990322265625,328.6020793011913Q817.1030322265625,333.5460793011913 817.1030322265625,339.0180793011913L817.1030322265625,340.9380793011913L782.1590322265624,340.9380793011913Q781.9670322265624,349.5780793011913 786.2390322265625,354.9060793011913Q790.5110322265625,360.2340793011913 797.8070322265626,360.2340793011913Q803.1830322265625,360.2340793011913 806.8310322265625,357.4980793011913Q810.4790322265625,354.7620793011913 812.7830322265625,349.3860793011913L817.5830322265625,352.1700793011913Q811.4390322265625,365.51407930119126 797.7110322265626,365.51407930119126ZM782.5430322265624,335.9460793011913L811.3430322265625,335.9460793011913Q810.8630322265625,332.2020793011913 808.9910322265625,329.1300793011913Q807.1190322265625,326.0580793011913 804.1910322265625,324.2340793011913Q801.2630322265625,322.4100793011913 797.5190322265626,322.4100793011913Q791.6630322265626,322.4100793011913 787.6790322265624,326.0100793011913Q783.6950322265625,329.61007930119126 782.5430322265624,335.9460793011913ZM829.1990322265624,364.4580793011913L829.1990322265624,318.4740793011913L834.7670322265625,318.4740793011913L835.0550322265624,326.4420793011913Q836.9750322265625,322.4100793011913 841.1510322265624,319.8660793011913Q845.3270322265624,317.3220793011913 850.4150322265625,317.3220793011913Q851.7590322265625,317.3220793011913 853.1510322265624,317.4660793011913Q854.5430322265624,317.61007930119126 855.5030322265625,317.8980793011913L855.5030322265625,323.56207930119126Q854.6390322265624,323.3700793011913 853.0550322265624,323.1780793011913Q851.4710322265624,322.9860793011913 849.8390322265625,322.9860793011913Q845.8070322265625,322.9860793011913 842.4470322265624,324.8580793011913Q839.0870322265625,326.73007930119127 837.1190322265625,329.8500793011913Q835.1510322265624,332.9700793011913 835.1510322265624,336.9060793011913L835.1510322265624,364.4580793011913L829.1990322265624,364.4580793011913ZM881.0390322265625,365.51407930119126Q874.8950322265625,365.51407930119126 869.9030322265625,363.1140793011913Q864.9110322265625,360.7140793011913 861.8390322265625,356.2980793011913L866.0630322265624,352.7460793011913Q868.3670322265625,356.2980793011913 872.3510322265624,358.2180793011913Q876.3350322265625,360.1380793011913 881.2310322265625,360.1380793011913Q885.9350322265625,360.1380793011913 889.2470322265624,358.0740793011913Q892.5590322265625,356.0100793011913 892.5590322265625,351.5940793011913Q892.5590322265625,347.65807930119126 889.3910322265624,346.1220793011913Q886.2230322265625,344.58607930119126 879.6950322265625,343.24207930119127Q875.6630322265624,342.3780793011913 872.0630322265624,341.1300793011913Q868.4630322265625,339.8820793011913 866.2550322265624,337.33807930119127Q864.0470322265625,334.7940793011913 864.0470322265625,330.2820793011913Q864.0470322265625,326.1540793011913 866.3030322265624,323.2740793011913Q868.5590322265625,320.3940793011913 872.3030322265624,318.8580793011913Q876.0470322265625,317.3220793011913 880.2710322265625,317.3220793011913Q891.5990322265625,317.3220793011913 896.8790322265625,325.3860793011913L892.9430322265625,328.9380793011913Q889.0070322265624,322.6980793011913 880.3670322265625,322.6980793011913Q875.3750322265626,322.6980793011913 872.6870322265625,324.8580793011913Q869.9990322265625,327.0180793011913 869.9990322265625,330.1860793011913Q869.9990322265625,333.7380793011913 872.9270322265625,335.2260793011913Q875.8550322265625,336.7140793011913 881.9990322265625,338.0580793011913Q886.3190322265625,339.0180793011913 890.1110322265624,340.4580793011913Q893.9030322265625,341.8980793011913 896.2070322265624,344.4900793011913Q898.5110322265625,347.0820793011913 898.5110322265625,351.6900793011913Q898.5110322265625,357.8340793011913 893.7590322265625,361.6740793011913Q889.0070322265624,365.51407930119126 881.0390322265625,365.51407930119126Z"  fill="#114169" stroke="#114169" stroke-width="0" stroke-dasharray="none" stroke-dashoffset="0" stroke-linecap="butt" stroke-linejoin="miter" stroke-miterlimit="4"  /></g></g><g transform="matrix(
4,0,0,4,942.49621875,287.55200195312494)" style="mix-blend-mode: normal; opacity: 1"><g transform="matrix(
0.25,-0,-0,0.25,-235.6240546875,-71.88800048828124)"><path d="M977.44021875,365.9940793011912Q968.32021875,365.9940793011912 961.16821875,361.6740793011912Q954.01621875,357.35407930119123 949.9842187500001,349.4340793011912Q945.95221875,341.51407930119126 945.95221875,330.85807930119125Q945.95221875,320.10607930119124 949.9842187500001,312.1860793011912Q954.01621875,304.2660793011912 961.16821875,299.8980793011912Q968.32021875,295.5300793011912 977.44021875,295.5300793011912Q985.8882187500001,295.5300793011912 992.60821875,299.27407930119125Q999.32821875,303.0180793011912 1003.4562187500001,309.73807930119125L993.56821875,315.49807930119124Q990.88021875,311.17807930119125 986.80021875,308.7780793011912Q982.7202187500001,306.37807930119124 977.44021875,306.37807930119124Q971.48821875,306.37807930119124 966.97621875,309.40207930119124Q962.46421875,312.42607930119124 960.01621875,317.9460793011912Q957.56821875,323.46607930119126 957.56821875,330.85807930119125Q957.56821875,338.15407930119125 960.01621875,343.6740793011912Q962.46421875,349.1940793011912 966.97621875,352.2180793011912Q971.48821875,355.2420793011912 977.44021875,355.2420793011912Q982.7202187500001,355.2420793011912 986.80021875,352.84207930119123Q990.88021875,350.44207930119126 993.56821875,346.1220793011912L1003.4562187500001,351.88207930119125Q999.32821875,358.5060793011912 992.60821875,362.25007930119125Q985.8882187500001,365.9940793011912 977.44021875,365.9940793011912ZM1032.73621875,365.51407930119126Q1026.40021875,365.51407930119126 1021.3602187500001,362.49007930119126Q1016.32021875,359.46607930119126 1013.39221875,354.0420793011912Q1010.46421875,348.61807930119124 1010.46421875,341.32207930119125Q1010.46421875,334.0260793011912 1013.39221875,328.6020793011912Q1016.32021875,323.17807930119125 1021.3602187500001,320.15407930119125Q1026.40021875,317.13007930119124 1032.73621875,317.13007930119124Q1039.26421875,317.13007930119124 1044.30421875,320.15407930119125Q1049.34421875,323.17807930119125 1052.22421875,328.6020793011912Q1055.10421875,334.0260793011912 1055.10421875,341.32207930119125Q1055.10421875,348.61807930119124 1052.22421875,354.0420793011912Q1049.34421875,359.46607930119126 1044.30421875,362.49007930119126Q1039.26421875,365.51407930119126 1032.73621875,365.51407930119126ZM1032.73621875,355.72207930119123Q1037.82421875,355.72207930119123 1041.0402187500001,351.9780793011912Q1044.25621875,348.23407930119123 1044.25621875,341.32207930119125Q1044.25621875,334.4100793011912 1041.0402187500001,330.66607930119125Q1037.82421875,326.9220793011912 1032.73621875,326.9220793011912Q1027.74421875,326.9220793011912 1024.57621875,330.66607930119125Q1021.4082187500001,334.4100793011912 1021.4082187500001,341.32207930119125Q1021.4082187500001,348.23407930119123 1024.57621875,351.9780793011912Q1027.74421875,355.72207930119123 1032.73621875,355.72207930119123ZM1064.41621875,364.4580793011912L1064.41621875,318.28207930119123L1074.11221875,318.28207930119123L1074.78421875,323.8500793011912Q1076.12821875,320.9700793011912 1079.29621875,319.05007930119126Q1082.46421875,317.13007930119124 1086.59221875,317.13007930119124Q1091.10421875,317.13007930119124 1094.46421875,319.2420793011912Q1097.82421875,321.35407930119123 1099.64821875,325.2900793011912Q1101.4722187500001,321.73807930119125 1104.97621875,319.4340793011912Q1108.48021875,317.13007930119124 1112.9922187500001,317.13007930119124Q1119.80821875,317.13007930119124 1123.98421875,321.88207930119125Q1128.16021875,326.63407930119126 1128.16021875,335.27407930119125L1128.16021875,364.4580793011912L1117.21621875,364.4580793011912L1117.21621875,337.77007930119123Q1117.21621875,332.68207930119127 1115.39221875,329.8020793011912Q1113.5682187500001,326.9220793011912 1110.30421875,326.9220793011912Q1106.17621875,326.9220793011912 1103.92021875,329.8980793011912Q1101.6642187500001,332.8740793011912 1101.6642187500001,338.34607930119125L1101.6642187500001,364.4580793011912L1090.81621875,364.4580793011912L1090.81621875,337.77007930119123Q1090.81621875,332.68207930119127 1088.8962187500001,329.8020793011912Q1086.97621875,326.9220793011912 1083.71221875,326.9220793011912Q1079.68021875,326.9220793011912 1077.4722187500001,329.9460793011912Q1075.26421875,332.9700793011912 1075.26421875,338.34607930119125L1075.26421875,364.4580793011912L1064.41621875,364.4580793011912ZM1139.87221875,383.37007930119125L1139.87221875,318.28207930119123L1149.2802187500001,318.28207930119123L1149.85621875,323.37007930119125Q1154.7522187499999,317.13007930119124 1162.72021875,317.13007930119124Q1169.15221875,317.13007930119124 1174.19221875,320.01007930119124Q1179.23221875,322.89007930119124 1182.11221875,328.3140793011912Q1184.9922187500001,333.73807930119125 1184.9922187500001,341.32207930119125Q1184.9922187500001,348.90607930119126 1182.11221875,354.33007930119123Q1179.23221875,359.75407930119127 1174.19221875,362.63407930119126Q1169.15221875,365.51407930119126 1162.72021875,365.51407930119126Q1159.16821875,365.51407930119126 1156.09621875,364.1220793011912Q1153.02421875,362.73007930119127 1150.72021875,360.23407930119123L1150.72021875,383.37007930119125L1139.87221875,383.37007930119125ZM1162.33621875,355.72207930119123Q1167.42421875,355.72207930119123 1170.78421875,351.9780793011912Q1174.14421875,348.23407930119123 1174.14421875,341.32207930119125Q1174.14421875,334.4100793011912 1170.78421875,330.66607930119125Q1167.42421875,326.9220793011912 1162.33621875,326.9220793011912Q1157.24821875,326.9220793011912 1153.88821875,330.66607930119125Q1150.52821875,334.4100793011912 1150.52821875,341.32207930119125Q1150.52821875,348.23407930119123 1153.88821875,351.9780793011912Q1157.24821875,355.72207930119123 1162.33621875,355.72207930119123ZM1208.51221875,365.13007930119124Q1201.02421875,365.41807930119126 1196.17621875,361.86607930119123Q1191.32821875,358.3140793011912 1191.32821875,351.59407930119124Q1191.32821875,346.6980793011912 1194.30421875,343.2420793011912Q1197.2802187500001,339.78607930119125 1201.98421875,337.81807930119123Q1206.68821875,335.8500793011912 1211.68021875,335.7540793011912Q1214.17621875,335.56207930119126 1216.38421875,336.1380793011912Q1218.59221875,336.71407930119125 1220.32021875,337.77007930119123L1220.32021875,333.73807930119125Q1220.32021875,329.22607930119125 1218.40021875,327.88207930119125Q1216.48021875,326.53807930119126 1212.73621875,326.53807930119126Q1208.70421875,326.53807930119126 1204.24021875,328.0260793011912Q1199.77621875,329.51407930119126 1196.60821875,331.72207930119123L1191.71221875,323.37007930119125Q1195.64821875,320.8740793011912 1201.21621875,319.00207930119126Q1206.78421875,317.13007930119124 1212.73621875,317.13007930119124Q1221.6642187500001,317.13007930119124 1226.17621875,320.7300793011912Q1230.68821875,324.33007930119123 1230.68821875,333.73807930119125L1230.68821875,354.9540793011912Q1230.68821875,356.9700793011912 1231.60021875,357.25807930119123Q1232.51221875,357.54607930119124 1235.77621875,356.58607930119126L1235.77621875,363.40207930119124Q1234.33621875,364.0740793011912 1232.17621875,364.6020793011912Q1230.01621875,365.13007930119124 1227.52021875,365.13007930119124Q1224.54421875,365.13007930119124 1222.96021875,364.1220793011912Q1221.3762187500001,363.1140793011912 1220.70421875,360.71407930119125Q1218.30421875,362.73007930119127 1215.13621875,363.83407930119125Q1211.96821875,364.93807930119124 1208.51221875,365.13007930119124ZM1208.32021875,355.72207930119123Q1213.69621875,355.5300793011912 1217.20021875,353.61007930119126Q1220.70421875,351.69007930119125 1220.51221875,348.1380793011912Q1220.41621875,345.83407930119125 1218.16021875,344.9700793011912Q1215.90421875,344.10607930119124 1212.54421875,344.29807930119125Q1207.84021875,344.39407930119125 1204.76821875,346.6500793011912Q1201.69621875,348.90607930119126 1201.79221875,351.69007930119125Q1201.98421875,356.01007930119124 1208.32021875,355.72207930119123ZM1244.60821875,364.4580793011912L1244.60821875,318.28207930119123L1254.30421875,318.28207930119123L1254.88021875,323.7540793011912Q1256.80021875,321.0660793011912 1259.96821875,319.0980793011912Q1263.13621875,317.13007930119124 1267.45621875,317.13007930119124Q1274.6562187499999,317.13007930119124 1279.21621875,321.73807930119125Q1283.77621875,326.34607930119125 1283.77621875,335.27407930119125L1283.77621875,364.4580793011912L1272.92821875,364.4580793011912L1272.92821875,337.86607930119123Q1272.92821875,332.39407930119125 1270.72021875,329.65807930119126Q1268.51221875,326.9220793011912 1264.76821875,326.9220793011912Q1260.64021875,326.9220793011912 1258.04821875,329.7540793011912Q1255.45621875,332.58607930119126 1255.45621875,338.15407930119125L1255.45621875,364.4580793011912L1244.60821875,364.4580793011912ZM1299.42421875,383.56207930119126Q1297.12021875,383.56207930119126 1295.10421875,383.41807930119126Q1293.08821875,383.27407930119125 1291.45621875,382.89007930119124L1291.45621875,373.0020793011912Q1293.08821875,373.3860793011912 1294.86421875,373.6260793011912Q1296.64021875,373.86607930119123 1298.2722187499999,373.86607930119123Q1300.86421875,373.86607930119123 1302.16021875,373.2900793011912Q1303.45621875,372.71407930119125 1304.22421875,371.37007930119125Q1304.9922187500001,370.0260793011912 1305.95221875,367.72207930119123L1307.20021875,364.3620793011912L1288.96021875,318.28207930119123L1300.19221875,318.28207930119123L1311.90421875,351.40207930119124L1322.94421875,318.28207930119123L1333.9842187499999,318.28207930119123L1315.16821875,370.89007930119124Q1312.86421875,377.22607930119125 1309.55221875,380.39407930119125Q1306.24021875,383.56207930119126 1299.42421875,383.56207930119126Z"  fill="#114169" stroke="#114169" stroke-width="0" stroke-dasharray="none" stroke-dashoffset="0" stroke-linecap="butt" stroke-linejoin="miter" stroke-miterlimit="4"  /></g></g><g transform="matrix(
0.000000000000005878304635907295,93.64863586425781,-2,0.00000000000000011946510641216598,924.4002685546875,287.552001953125)" style="mix-blend-mode: normal; opacity: 1"><g transform="matrix(
0.0000000000000000006378368745559131,-0.5,0.010678212135940602,0.00000000000000003138489195095059,-3.0705412769698754,462.20013427734375)"><path d="M924.4002685546875,287.552001953125L924.4002685546875,381.2006378173828"  fill="#114169" stroke="#114169" stroke-width="5" stroke-dasharray="none" stroke-dashoffset="0" stroke-linecap="butt" stroke-linejoin="miter" stroke-miterlimit="4"  /></g></g><g transform="matrix(
943.7392441406248,0,0,111.65267944335936,399.1190322265626,280.6797790527344)" style="mix-blend-mode: normal; opacity: 1"><g transform="matrix(
0.0010596147253689831,-0,-0,0.008956345740966236,-0.42291240372228345,-2.5138651436943014)"><path d="M399.1190322265626,280.6797790527344L399.1190322265626,392.33245849609375L1342.8582763671875,392.33245849609375L1342.8582763671875,280.6797790527344Z"  fill="#000000" fill-opacity="0.000" /></g></g></g></g></g></svg>