<svg xmlns="http://www.w3.org/2000/svg" preserveAspectRatio="none" viewBox="0 0 1 1" width="1800.856689453125" height="873.538330078125">
<rect x="0" y="0" width="100%" height="100%" fill="#222222" /><g transform="matrix(0.0005552912710137279,-0,-0,0.001144769457237858,-0.03307962017317876,-0.11817550690844325)"><defs></defs><g transform="matrix(
1,0,0,1,0,0)" style="mix-blend-mode: normal; opacity: 1"><g transform="matrix(
1920,0,-0,1080,0,0)" style="mix-blend-mode: normal; opacity: 1"><g transform="matrix(
0.0005208333333333333,-0,-0,0.000925925925925926,-0,-0)"><path d="M0,0L0,1080L1920,1080L1920,0Z"  fill="#FFFFFF" /></g></g></g><defs></defs><g transform="matrix(
1,0,0,1,0,0)" style="mix-blend-mode: normal; opacity: 1"><g transform="matrix(
1,0,0,1,0,0)" style="mix-blend-mode: normal; opacity: 1"><g transform="matrix(
1,0,0,1,0,0)" style="mix-blend-mode: normal; opacity: 1"><g transform="matrix(
1800.856689453125,0,0,873.538330078125,59.5716552734375,103.23083496093744)" style="mix-blend-mode: normal; opacity: 1"><g transform="matrix(
0.0005552912710137279,-0,-0,0.001144769457237858,-0.03307962017317876,-0.11817550690844325)"><path d="M59.5716552734375,103.23083496093744L59.5716552734375,976.7691650390625L1860.4283447265625,976.7691650390625L1860.4283447265625,103.23083496093744Z"  fill="#051937" /></g></g><g transform="matrix(
1734.31396484375,0,0,816.179931640625,92.843017578125,131.9100341796875)" style="mix-blend-mode: normal; opacity: 1"><g transform="matrix(
0.0005765968678514869,-0,-0,0.0012252200295955248,-0.05353299313742742,-0.1616188159815834)"><path d="M92.843017578125,131.9100341796875L92.843017578125,948.0899658203125L1827.156982421875,948.0899658203125L1827.156982421875,131.9100341796875Z"  fill="#EDFAFA" /></g></g><g transform="matrix(
-1.1943359375,0,0,-25.24169921875,657.00439453125,347.85693359375)" style="mix-blend-mode: normal; opacity: 1"><g transform="matrix(
-0.8372853638593621,-0,-0,-0.03961698423445207,550.1001635322975,13.781042654028434)"><path d="M657.00439453125,347.85693359375L657.00439453125,322.615234375L655.81005859375,322.615234375L655.81005859375,347.85693359375Z"  fill="#000000" /></g></g><g transform="matrix(
4,0,0,4,251.89614181947354,203.85693359375)" style="mix-blend-mode: normal; opacity: 1"><g transform="matrix(
0.25,-0,-0,0.25,-62.974035454868385,-50.9642333984375)"><path d="M290.4881418194735,319.21604961584944L290.4881418194735,226.76804961584943L257.3681418194735,226.76804961584943L257.3681418194735,218.41604961584943L332.68014181947353,218.41604961584943L332.68014181947353,226.76804961584943L299.56014181947353,226.76804961584943L299.56014181947353,319.21604961584944L290.4881418194735,319.21604961584944ZM348.66414181947357,319.21604961584944L348.66414181947357,215.24804961584942L357.44814181947356,215.24804961584942L357.44814181947356,260.0320496158495Q360.47214181947356,255.13604961584946 366.01614181947355,251.82404961584945Q371.56014181947353,248.51204961584943 378.61614181947357,248.51204961584943Q389.70414181947353,248.51204961584943 396.47214181947356,255.56804961584945Q403.2401418194736,262.62404961584946 403.2401418194736,275.72804961584944L403.2401418194736,319.21604961584944L394.60014181947355,319.21604961584944L394.60014181947355,277.02404961584944Q394.60014181947355,266.94404961584945 389.77614181947354,261.90404961584943Q384.9521418194736,256.86404961584947 377.3201418194735,256.86404961584947Q371.56014181947353,256.86404961584947 367.0241418194736,259.38404961584945Q362.4881418194735,261.90404961584943 359.96814181947354,266.1520496158494Q357.44814181947356,270.4000496158494 357.44814181947356,275.58404961584944L357.44814181947356,319.21604961584944L348.66414181947357,319.21604961584944ZM452.92014181947354,320.80004961584945Q443.56014181947353,320.80004961584945 436.28814181947354,316.40804961584945Q429.01614181947355,312.01604961584945 424.91214181947356,303.88004961584943Q420.8081418194736,295.74404961584946 420.8081418194736,284.65604961584944Q420.8081418194736,273.85604961584943 424.91214181947356,265.79204961584946Q429.01614181947355,257.72804961584944 436.21614181947353,253.19204961584944Q443.4161418194735,248.65604961584944 452.63214181947353,248.65604961584944Q461.99214181947355,248.65604961584944 468.54414181947357,253.33604961584945Q475.0961418194736,258.01604961584945 478.55214181947355,265.43204961584945Q482.00814181947356,272.84804961584945 482.00814181947356,281.0560496158495L482.00814181947356,283.93604961584947L429.59214181947357,283.93604961584947Q429.30414181947356,296.89604961584945 435.7121418194736,304.88804961584947Q442.1201418194736,312.88004961584943 453.06414181947355,312.88004961584943Q461.12814181947357,312.88004961584943 466.60014181947355,308.77604961584944Q472.0721418194736,304.67204961584946 475.52814181947355,296.60804961584944L482.72814181947354,300.7840496158494Q473.5121418194735,320.80004961584945 452.92014181947354,320.80004961584945ZM430.16814181947353,276.4480496158494L473.3681418194735,276.4480496158494Q472.64814181947355,270.8320496158494 469.84014181947356,266.2240496158494Q467.03214181947357,261.6160496158494 462.64014181947357,258.88004961584943Q458.2481418194735,256.14404961584944 452.63214181947353,256.14404961584944Q443.84814181947354,256.14404961584944 437.87214181947354,261.5440496158494Q431.89614181947354,266.94404961584945 430.16814181947353,276.4480496158494ZM500.15214181947357,319.21604961584944L500.15214181947357,215.24804961584942L508.93614181947356,215.24804961584942L508.93614181947356,260.0320496158495Q511.96014181947356,255.13604961584946 517.5041418194735,251.82404961584945Q523.0481418194736,248.51204961584943 530.1041418194736,248.51204961584943Q541.1921418194736,248.51204961584943 547.9601418194736,255.56804961584945Q554.7281418194736,262.62404961584946 554.7281418194736,275.72804961584944L554.7281418194736,319.21604961584944L546.0881418194735,319.21604961584944L546.0881418194735,277.02404961584944Q546.0881418194735,266.94404961584945 541.2641418194736,261.90404961584943Q536.4401418194736,256.86404961584947 528.8081418194736,256.86404961584947Q523.0481418194736,256.86404961584947 518.5121418194735,259.38404961584945Q513.9761418194736,261.90404961584943 511.45614181947354,266.1520496158494Q508.93614181947356,270.4000496158494 508.93614181947356,275.58404961584944L508.93614181947356,319.21604961584944L500.15214181947357,319.21604961584944ZM578.6321418194736,319.21604961584944L578.6321418194736,250.24004961584944L587.2721418194736,250.24004961584944L587.2721418194736,319.21604961584944L578.6321418194736,319.21604961584944ZM582.9521418194736,235.26404961584944Q580.2161418194736,235.26404961584944 578.2001418194736,233.32004961584943Q576.1841418194736,231.37604961584944 576.1841418194736,228.64004961584945Q576.1841418194736,225.76004961584943 578.2001418194736,223.88804961584944Q580.2161418194736,222.01604961584943 582.9521418194736,222.01604961584943Q585.6881418194737,222.01604961584943 587.5601418194735,223.88804961584944Q589.4321418194736,225.76004961584943 589.4321418194736,228.64004961584945Q589.4321418194736,231.37604961584944 587.5601418194735,233.32004961584943Q585.6881418194737,235.26404961584944 582.9521418194736,235.26404961584944ZM637.9601418194736,350.3200496158495Q618.8081418194736,350.3200496158495 609.1601418194737,335.3440496158495L616.3601418194736,330.5920496158494Q623.5601418194736,341.96804961584945 637.9601418194736,341.96804961584945Q648.6161418194736,341.96804961584945 654.2321418194736,334.9840496158495Q659.8481418194735,328.00004961584943 659.8481418194735,314.0320496158495L659.8481418194735,301.64804961584946Q656.2481418194736,307.26404961584944 650.4881418194736,310.50404961584945Q644.7281418194736,313.74404961584946 637.3841418194736,313.74404961584946Q628.6001418194736,313.74404961584946 621.7601418194736,309.7120496158494Q614.9201418194737,305.68004961584944 610.9601418194736,298.33604961584945Q607.0001418194736,290.99204961584945 607.0001418194736,281.0560496158495Q607.0001418194736,271.12004961584944 610.9601418194736,263.84804961584945Q614.9201418194737,256.57604961584946 621.7601418194736,252.54404961584945Q628.6001418194736,248.51204961584943 637.3841418194736,248.51204961584943Q644.8721418194737,248.51204961584943 650.7761418194737,251.89604961584945Q656.6801418194736,255.28004961584944 660.2801418194736,261.18404961584946L660.4241418194736,250.24004961584944L668.4881418194736,250.24004961584944L668.4881418194736,314.0320496158495Q668.4881418194736,332.75204961584944 660.0641418194737,341.5360496158495Q651.6401418194737,350.3200496158495 637.9601418194736,350.3200496158495ZM637.8161418194736,305.68004961584944Q644.2961418194736,305.68004961584944 649.3361418194736,302.58404961584944Q654.3761418194736,299.48804961584943 657.2561418194737,293.94404961584945Q660.1361418194736,288.4000496158494 660.1361418194736,281.0560496158495Q660.1361418194736,273.7120496158494 657.2561418194737,268.24004961584944Q654.3761418194736,262.76804961584946 649.3361418194736,259.67204961584946Q644.2961418194736,256.57604961584946 637.8161418194736,256.57604961584946Q631.4801418194736,256.57604961584946 626.5121418194736,259.67204961584946Q621.5441418194737,262.76804961584946 618.6641418194736,268.24004961584944Q615.7841418194737,273.7120496158494 615.7841418194737,281.0560496158495Q615.7841418194737,288.4000496158494 618.6641418194736,293.94404961584945Q621.5441418194737,299.48804961584943 626.5121418194736,302.58404961584944Q631.4801418194736,305.68004961584944 637.8161418194736,305.68004961584944ZM717.0161418194737,350.3200496158495Q697.8641418194736,350.3200496158495 688.2161418194736,335.3440496158495L695.4161418194735,330.5920496158494Q702.6161418194736,341.96804961584945 717.0161418194737,341.96804961584945Q727.6721418194736,341.96804961584945 733.2881418194736,334.9840496158495Q738.9041418194736,328.00004961584943 738.9041418194736,314.0320496158495L738.9041418194736,301.64804961584946Q735.3041418194737,307.26404961584944 729.5441418194737,310.50404961584945Q723.7841418194736,313.74404961584946 716.4401418194736,313.74404961584946Q707.6561418194735,313.74404961584946 700.8161418194736,309.7120496158494Q693.9761418194736,305.68004961584944 690.0161418194737,298.33604961584945Q686.0561418194736,290.99204961584945 686.0561418194736,281.0560496158495Q686.0561418194736,271.12004961584944 690.0161418194737,263.84804961584945Q693.9761418194736,256.57604961584946 700.8161418194736,252.54404961584945Q707.6561418194735,248.51204961584943 716.4401418194736,248.51204961584943Q723.9281418194736,248.51204961584943 729.8321418194736,251.89604961584945Q735.7361418194736,255.28004961584944 739.3361418194736,261.18404961584946L739.4801418194736,250.24004961584944L747.5441418194737,250.24004961584944L747.5441418194737,314.0320496158495Q747.5441418194737,332.75204961584944 739.1201418194736,341.5360496158495Q730.6961418194736,350.3200496158495 717.0161418194737,350.3200496158495ZM716.8721418194737,305.68004961584944Q723.3521418194737,305.68004961584944 728.3921418194736,302.58404961584944Q733.4321418194736,299.48804961584943 736.3121418194736,293.94404961584945Q739.1921418194736,288.4000496158494 739.1921418194736,281.0560496158495Q739.1921418194736,273.7120496158494 736.3121418194736,268.24004961584944Q733.4321418194736,262.76804961584946 728.3921418194736,259.67204961584946Q723.3521418194737,256.57604961584946 716.8721418194737,256.57604961584946Q710.5361418194736,256.57604961584946 705.5681418194736,259.67204961584946Q700.6001418194736,262.76804961584946 697.7201418194736,268.24004961584944Q694.8401418194736,273.7120496158494 694.8401418194736,281.0560496158495Q694.8401418194736,288.4000496158494 697.7201418194736,293.94404961584945Q700.6001418194736,299.48804961584943 705.5681418194736,302.58404961584944Q710.5361418194736,305.68004961584944 716.8721418194737,305.68004961584944ZM769.0001418194736,319.21604961584944L769.0001418194736,215.24804961584942L777.7841418194737,215.24804961584942L777.7841418194737,319.21604961584944L769.0001418194736,319.21604961584944ZM827.4641418194736,320.80004961584945Q818.1041418194736,320.80004961584945 810.8321418194737,316.40804961584945Q803.5601418194736,312.01604961584945 799.4561418194736,303.88004961584943Q795.3521418194737,295.74404961584946 795.3521418194737,284.65604961584944Q795.3521418194737,273.85604961584943 799.4561418194736,265.79204961584946Q803.5601418194736,257.72804961584944 810.7601418194737,253.19204961584944Q817.9601418194736,248.65604961584944 827.1761418194736,248.65604961584944Q836.5361418194736,248.65604961584944 843.0881418194737,253.33604961584945Q849.6401418194737,258.01604961584945 853.0961418194736,265.43204961584945Q856.5521418194736,272.84804961584945 856.5521418194736,281.0560496158495L856.5521418194736,283.93604961584947L804.1361418194737,283.93604961584947Q803.8481418194737,296.89604961584945 810.2561418194737,304.88804961584947Q816.6641418194737,312.88004961584943 827.6081418194736,312.88004961584943Q835.6721418194736,312.88004961584943 841.1441418194737,308.77604961584944Q846.6161418194737,304.67204961584946 850.0721418194737,296.60804961584944L857.2721418194736,300.7840496158494Q848.0561418194736,320.80004961584945 827.4641418194736,320.80004961584945ZM804.7121418194737,276.4480496158494L847.9121418194736,276.4480496158494Q847.1921418194736,270.8320496158494 844.3841418194736,266.2240496158494Q841.5761418194736,261.6160496158494 837.1841418194737,258.88004961584943Q832.7921418194736,256.14404961584944 827.1761418194736,256.14404961584944Q818.3921418194736,256.14404961584944 812.4161418194736,261.5440496158494Q806.4401418194736,266.94404961584945 804.7121418194737,276.4480496158494ZM874.6961418194736,319.21604961584944L874.6961418194736,250.24004961584944L883.0481418194737,250.24004961584944L883.4801418194737,262.19204961584944Q886.3601418194737,256.14404961584944 892.6241418194736,252.32804961584944Q898.8881418194736,248.51204961584943 906.5201418194737,248.51204961584943Q908.5361418194736,248.51204961584943 910.6241418194736,248.72804961584944Q912.7121418194737,248.94404961584945 914.1521418194736,249.37604961584944L914.1521418194736,257.87204961584945Q912.8561418194737,257.58404961584944 910.4801418194737,257.2960496158494Q908.1041418194736,257.0080496158495 905.6561418194736,257.0080496158495Q899.6081418194736,257.0080496158495 894.5681418194737,259.81604961584947Q889.5281418194737,262.62404961584946 886.5761418194736,267.30404961584946Q883.6241418194736,271.9840496158495 883.6241418194736,277.88804961584947L883.6241418194736,319.21604961584944L874.6961418194736,319.21604961584944ZM952.4561418194737,320.80004961584945Q943.2401418194737,320.80004961584945 935.7521418194736,317.2000496158495Q928.2641418194737,313.60004961584946 923.6561418194736,306.97604961584943L929.9921418194737,301.64804961584946Q933.4481418194737,306.97604961584943 939.4241418194737,309.85604961584943Q945.4001418194737,312.7360496158494 952.7441418194737,312.7360496158494Q959.8001418194737,312.7360496158494 964.7681418194736,309.6400496158494Q969.7361418194737,306.5440496158494 969.7361418194737,299.92004961584945Q969.7361418194737,294.01604961584945 964.9841418194736,291.7120496158494Q960.2321418194737,289.40804961584945 950.4401418194736,287.39204961584943Q944.3921418194736,286.09604961584944 938.9921418194737,284.2240496158494Q933.5921418194737,282.3520496158494 930.2801418194737,278.53604961584944Q926.9681418194737,274.72004961584946 926.9681418194737,267.95204961584943Q926.9681418194737,261.7600496158494 930.3521418194737,257.44004961584943Q933.7361418194737,253.12004961584944 939.3521418194737,250.81604961584944Q944.9681418194737,248.51204961584943 951.3041418194737,248.51204961584943Q968.2961418194736,248.51204961584943 976.2161418194737,260.60804961584944L970.3121418194737,265.93604961584947Q964.4081418194737,256.57604961584946 951.4481418194737,256.57604961584946Q943.9601418194736,256.57604961584946 939.9281418194737,259.81604961584947Q935.8961418194737,263.0560496158494 935.8961418194737,267.8080496158494Q935.8961418194737,273.13604961584946 940.2881418194737,275.36804961584943Q944.6801418194736,277.60004961584946 953.8961418194737,279.6160496158494Q960.3761418194737,281.0560496158495 966.0641418194737,283.21604961584944Q971.7521418194736,285.3760496158494 975.2081418194737,289.26404961584944Q978.6641418194737,293.1520496158495 978.6641418194737,300.06404961584946Q978.6641418194737,309.28004961584946 971.5361418194736,315.04004961584945Q964.4081418194737,320.80004961584945 952.4561418194737,320.80004961584945ZM1077.3041418194737,321.08804961584946Q1063.6241418194736,321.08804961584946 1053.2561418194737,314.60804961584944Q1042.8881418194737,308.1280496158495 1037.0561418194739,296.3200496158494Q1031.2241418194737,284.51204961584943 1031.2241418194737,268.67204961584946Q1031.2241418194737,252.83204961584943 1037.0561418194739,241.09604961584944Q1042.8881418194737,229.36004961584945 1053.2561418194737,222.80804961584943Q1063.6241418194736,216.25604961584943 1077.3041418194737,216.25604961584943Q1089.2561418194737,216.25604961584943 1098.6881418194737,221.36804961584943Q1108.1201418194737,226.48004961584945 1114.3121418194737,235.84004961584944L1106.5361418194739,240.44804961584944Q1101.6401418194737,233.10404961584945 1094.1521418194739,229.07204961584944Q1086.6641418194736,225.04004961584943 1077.3041418194737,225.04004961584943Q1066.5041418194737,225.04004961584943 1058.1521418194739,230.29604961584943Q1049.8001418194738,235.55204961584943 1045.0481418194736,245.34404961584943Q1040.2961418194736,255.13604961584946 1040.2961418194736,268.67204961584946Q1040.2961418194736,282.20804961584946 1045.0481418194736,292.07204961584944Q1049.8001418194738,301.93604961584947 1058.1521418194739,307.19204961584944Q1066.5041418194737,312.4480496158494 1077.3041418194737,312.4480496158494Q1086.6641418194736,312.4480496158494 1094.1521418194739,308.41604961584943Q1101.6401418194737,304.38404961584945 1106.5361418194739,297.04004961584945L1114.3121418194737,301.79204961584946Q1108.1201418194737,310.86404961584947 1098.6881418194737,315.97604961584943Q1089.2561418194737,321.08804961584946 1077.3041418194737,321.08804961584946ZM1159.8161418194736,320.80004961584945Q1150.6001418194737,320.80004961584945 1143.400141819474,316.19204961584944Q1136.2001418194736,311.58404961584944 1132.0241418194737,303.4480496158494Q1127.8481418194738,295.31204961584945 1127.8481418194738,284.65604961584944Q1127.8481418194738,274.00004961584943 1132.0241418194737,265.86404961584947Q1136.2001418194736,257.72804961584944 1143.400141819474,253.12004961584944Q1150.6001418194737,248.51204961584943 1159.8161418194736,248.51204961584943Q1169.1761418194737,248.51204961584943 1176.3761418194738,253.12004961584944Q1183.5761418194738,257.72804961584944 1187.7521418194738,265.86404961584947Q1191.9281418194737,274.00004961584943 1191.9281418194737,284.65604961584944Q1191.9281418194737,295.31204961584945 1187.7521418194738,303.4480496158494Q1183.5761418194738,311.58404961584944 1176.3761418194738,316.19204961584944Q1169.1761418194737,320.80004961584945 1159.8161418194736,320.80004961584945ZM1159.8161418194736,312.5920496158494Q1166.5841418194736,312.5920496158494 1171.8401418194737,309.13604961584946Q1177.0961418194738,305.68004961584944 1180.1201418194737,299.41604961584943Q1183.1441418194736,293.1520496158495 1183.1441418194736,284.65604961584944Q1183.1441418194736,276.16004961584946 1180.1201418194737,269.89604961584945Q1177.0961418194738,263.63204961584944 1171.8401418194737,260.1760496158494Q1166.5841418194736,256.72004961584946 1159.8161418194736,256.72004961584946Q1149.7361418194737,256.72004961584946 1143.1841418194738,264.28004961584946Q1136.6321418194739,271.84004961584947 1136.6321418194739,284.65604961584944Q1136.6321418194739,297.32804961584947 1143.1841418194738,304.96004961584947Q1149.7361418194737,312.5920496158494 1159.8161418194736,312.5920496158494ZM1209.3521418194737,319.21604961584944L1209.3521418194737,250.24004961584944L1217.5601418194738,250.24004961584944L1217.9921418194738,261.04004961584945Q1220.2961418194736,255.71204961584945 1225.6241418194736,252.11204961584946Q1230.9521418194736,248.51204961584943 1237.7201418194736,248.51204961584943Q1246.0721418194737,248.51204961584943 1251.4721418194736,252.40004961584944Q1256.8721418194737,256.28804961584945 1258.7441418194737,263.2000496158494Q1261.1921418194738,256.86404961584947 1266.5201418194738,252.68804961584945Q1271.8481418194738,248.51204961584943 1280.2001418194736,248.51204961584943Q1290.8561418194738,248.51204961584943 1296.9041418194738,255.20804961584943Q1302.9521418194738,261.90404961584943 1302.9521418194738,275.2960496158494L1302.9521418194738,319.21604961584944L1294.1681418194737,319.21604961584944L1294.1681418194737,276.5920496158494Q1294.1681418194737,265.64804961584946 1289.9921418194738,261.18404961584946Q1285.8161418194736,256.72004961584946 1278.7601418194738,256.72004961584946Q1273.2881418194738,256.72004961584946 1269.1841418194738,259.52804961584945Q1265.0801418194737,262.33604961584945 1262.8481418194738,266.87204961584945Q1260.6161418194738,271.40804961584945 1260.6161418194738,276.7360496158494L1260.6161418194738,319.21604961584944L1251.8321418194737,319.21604961584944L1251.8321418194737,276.5920496158494Q1251.8321418194737,265.64804961584946 1247.5841418194736,261.18404961584946Q1243.3361418194736,256.72004961584946 1236.2801418194738,256.72004961584946Q1230.8081418194738,256.72004961584946 1226.7041418194738,259.60004961584946Q1222.6001418194737,262.48004961584945 1220.3681418194737,267.01604961584945Q1218.1361418194738,271.55204961584946 1218.1361418194738,276.5920496158494L1218.1361418194738,319.21604961584944L1209.3521418194737,319.21604961584944ZM1324.4081418194737,349.16804961584944L1324.4081418194737,250.24004961584944L1332.4721418194738,250.24004961584944L1332.7601418194738,262.76804961584946Q1336.5041418194737,256.00004961584943 1342.6961418194737,252.25604961584943Q1348.8881418194737,248.51204961584943 1356.8081418194738,248.51204961584943Q1366.0241418194737,248.51204961584943 1373.2241418194737,253.04804961584944Q1380.4241418194738,257.58404961584944 1384.5281418194738,265.72004961584946Q1388.6321418194739,273.85604961584943 1388.6321418194739,284.65604961584944Q1388.6321418194739,295.45604961584945 1384.5281418194738,303.5920496158494Q1380.4241418194738,311.72804961584944 1373.2241418194737,316.26404961584944Q1366.0241418194737,320.80004961584945 1356.8081418194738,320.80004961584945Q1349.0321418194737,320.80004961584945 1342.9841418194737,317.0560496158495Q1336.9361418194737,313.31204961584945 1333.1921418194738,306.97604961584943L1333.1921418194738,349.16804961584944L1324.4081418194737,349.16804961584944ZM1356.6641418194738,312.5920496158494Q1363.4321418194738,312.5920496158494 1368.6881418194737,309.13604961584946Q1373.9441418194738,305.68004961584944 1376.9681418194737,299.41604961584943Q1379.9921418194738,293.1520496158495 1379.9921418194738,284.65604961584944Q1379.9921418194738,276.16004961584946 1376.9681418194737,269.89604961584945Q1373.9441418194738,263.63204961584944 1368.6881418194737,260.1760496158494Q1363.4321418194738,256.72004961584946 1356.6641418194738,256.72004961584946Q1346.4401418194739,256.72004961584946 1339.8161418194738,264.28004961584946Q1333.1921418194738,271.84004961584947 1333.1921418194738,284.65604961584944Q1333.1921418194738,297.32804961584947 1339.8161418194738,304.96004961584947Q1346.4401418194739,312.5920496158494 1356.6641418194738,312.5920496158494ZM1423.1921418194738,320.51204961584943Q1413.112141819474,320.65604961584944 1406.8481418194738,315.90404961584943Q1400.5841418194739,311.1520496158495 1400.5841418194739,302.0800496158495Q1400.5841418194739,295.16804961584944 1405.264141819474,289.9840496158495Q1409.9441418194738,284.80004961584945 1417.216141819474,281.84804961584945Q1424.4881418194739,278.89604961584945 1432.264141819474,278.89604961584945Q1442.9201418194739,278.89604961584945 1449.112141819474,283.93604961584947L1449.112141819474,272.1280496158495Q1449.112141819474,262.48004961584945 1445.080141819474,259.52804961584945Q1441.0481418194738,256.57604961584946 1432.120141819474,256.57604961584946Q1426.360141819474,256.57604961584946 1419.304141819474,258.6640496158494Q1412.2481418194739,260.75204961584944 1407.352141819474,263.92004961584945L1403.1761418194737,257.0080496158495Q1408.792141819474,253.40804961584945 1416.784141819474,250.96004961584944Q1424.7761418194739,248.51204961584943 1432.120141819474,248.51204961584943Q1445.224141819474,248.51204961584943 1451.4161418194738,253.55204961584946Q1457.6081418194738,258.5920496158494 1457.6081418194738,272.1280496158495L1457.6081418194738,310.28804961584945Q1457.6081418194738,313.02404961584944 1459.120141819474,313.38404961584945Q1460.6321418194739,313.74404961584946 1465.8161418194738,312.7360496158494L1465.8161418194738,318.92804961584943Q1464.3761418194738,319.50404961584945 1461.928141819474,320.0080496158495Q1459.4801418194738,320.51204961584943 1457.320141819474,320.51204961584943Q1452.4241418194738,320.51204961584943 1450.984141819474,318.4960496158494Q1449.544141819474,316.48004961584945 1449.256141819474,310.86404961584947Q1444.792141819474,315.7600496158494 1437.448141819474,318.06404961584946Q1430.1041418194739,320.36804961584943 1423.1921418194738,320.51204961584943ZM1423.6241418194738,312.5920496158494Q1430.5361418194739,312.4480496158494 1436.5121418194738,310.43204961584945Q1442.4881418194739,308.41604961584943 1446.016141819474,304.60004961584946Q1449.544141819474,300.7840496158494 1449.256141819474,295.31204961584945Q1448.8241418194739,290.84804961584945 1444.360141819474,288.6160496158494Q1439.8961418194738,286.38404961584945 1432.840141819474,286.52804961584945Q1426.936141819474,286.52804961584945 1421.4641418194738,288.5440496158494Q1415.9921418194738,290.56004961584944 1412.6081418194738,294.08804961584946Q1409.2241418194737,297.6160496158494 1409.2241418194737,302.2240496158495Q1409.2241418194737,307.55204961584946 1413.256141819474,310.07204961584944Q1417.2881418194738,312.5920496158494 1423.6241418194738,312.5920496158494ZM1481.8001418194738,319.21604961584944L1481.8001418194738,250.24004961584944L1490.0081418194738,250.24004961584944L1490.2961418194739,260.0320496158495Q1493.6081418194738,255.13604961584946 1499.1521418194739,251.82404961584945Q1504.6961418194737,248.51204961584943 1511.7521418194738,248.51204961584943Q1522.8401418194737,248.51204961584943 1529.6081418194738,255.56804961584945Q1536.3761418194738,262.62404961584946 1536.3761418194738,275.72804961584944L1536.3761418194738,319.21604961584944L1527.736141819474,319.21604961584944L1527.736141819474,277.02404961584944Q1527.736141819474,266.94404961584945 1522.9121418194738,261.90404961584943Q1518.0881418194738,256.86404961584947 1510.4561418194737,256.86404961584947Q1504.6961418194737,256.86404961584947 1500.160141819474,259.38404961584945Q1495.6241418194738,261.90404961584943 1493.1041418194739,266.1520496158494Q1490.5841418194739,270.4000496158494 1490.5841418194739,275.58404961584944L1490.5841418194739,319.21604961584944L1481.8001418194738,319.21604961584944ZM1558.408141819474,350.3200496158495Q1555.8161418194738,350.3200496158495 1553.1521418194739,349.96004961584947Q1550.4881418194739,349.60004961584946 1548.4721418194738,349.02404961584944L1548.4721418194738,340.81604961584947Q1550.4881418194739,341.3920496158495 1553.0081418194738,341.75204961584944Q1555.5281418194738,342.11204961584946 1557.832141819474,342.11204961584946Q1563.160141819474,342.11204961584946 1565.7521418194738,339.7360496158494Q1568.3441418194739,337.36004961584945 1570.648141819474,331.45604961584945L1575.256141819474,319.21604961584944L1548.1841418194738,250.24004961584944L1557.256141819474,250.24004961584944L1579.2881418194738,308.2720496158495L1600.456141819474,250.24004961584944L1609.6721418194738,250.24004961584944L1578.4241418194738,334.19204961584944Q1575.400141819474,342.5440496158494 1570.792141819474,346.43204961584945Q1566.1841418194738,350.3200496158495 1558.408141819474,350.3200496158495Z"  fill="#114169" stroke="#114169" stroke-width="0" stroke-dasharray="none" stroke-dashoffset="0" stroke-linecap="butt" stroke-linejoin="miter" stroke-miterlimit="4"  /></g></g><g transform="matrix(
4,0,0,4,531.286865234375,515.33447265625)" style="mix-blend-mode: normal; opacity: 1"><g transform="matrix(
0.25,-0,-0,0.25,-132.82171630859375,-128.8336181640625)"><path d=""  fill="#000000" /></g></g><g transform="matrix(
4,0,0,4,232.48014181947337,716.3515625)" style="mix-blend-mode: normal; opacity: 1"><g transform="matrix(
0.25,-0,-0,0.25,-58.12003545486834,-179.087890625)"><path d="M258.2081418194734,793.2576398480663L258.2081418194734,731.6256398480663L236.12814181947337,731.6256398480663L236.12814181947337,726.0576398480663L286.33614181947337,726.0576398480663L286.33614181947337,731.6256398480663L264.2561418194734,731.6256398480663L264.2561418194734,793.2576398480663L258.2081418194734,793.2576398480663ZM310.04814181947336,794.3136398480663Q303.80814181947335,794.3136398480663 298.9601418194734,791.3856398480663Q294.1121418194734,788.4576398480663 291.3761418194734,783.0336398480663Q288.6401418194734,777.6096398480663 288.6401418194734,770.2176398480663Q288.6401418194734,763.0176398480663 291.3761418194734,757.6416398480662Q294.1121418194734,752.2656398480663 298.9121418194734,749.2416398480663Q303.71214181947335,746.2176398480663 309.85614181947335,746.2176398480663Q316.09614181947336,746.2176398480663 320.4641418194734,749.3376398480663Q324.83214181947335,752.4576398480663 327.1361418194734,757.4016398480663Q329.4401418194734,762.3456398480663 329.4401418194734,767.8176398480663L329.4401418194734,769.7376398480662L294.4961418194734,769.7376398480662Q294.3041418194734,778.3776398480663 298.5761418194734,783.7056398480663Q302.84814181947337,789.0336398480663 310.14414181947336,789.0336398480663Q315.5201418194734,789.0336398480663 319.16814181947336,786.2976398480663Q322.8161418194734,783.5616398480663 325.12014181947336,778.1856398480663L329.9201418194734,780.9696398480663Q323.77614181947337,794.3136398480663 310.04814181947336,794.3136398480663ZM294.88014181947335,764.7456398480663L323.68014181947336,764.7456398480663Q323.2001418194734,761.0016398480662 321.3281418194734,757.9296398480662Q319.4561418194734,754.8576398480662 316.5281418194734,753.0336398480663Q313.6001418194734,751.2096398480663 309.85614181947335,751.2096398480663Q304.00014181947336,751.2096398480663 300.0161418194734,754.8096398480662Q296.0321418194734,758.4096398480663 294.88014181947335,764.7456398480663ZM360.2561418194734,794.3136398480663Q354.1121418194734,794.3136398480663 349.31214181947337,791.2896398480663Q344.51214181947336,788.2656398480663 341.72814181947336,782.7936398480663Q338.9441418194734,777.3216398480663 338.9441418194734,770.2176398480663Q338.9441418194734,763.1136398480663 341.72814181947336,757.6896398480662Q344.51214181947336,752.2656398480663 349.31214181947337,749.2416398480663Q354.1121418194734,746.2176398480663 360.2561418194734,746.2176398480663Q365.1521418194734,746.2176398480663 369.3281418194734,748.1856398480663Q373.5041418194734,750.1536398480663 376.4801418194734,753.9936398480663L371.87214181947337,757.4496398480663Q367.5521418194734,751.6896398480662 360.2561418194734,751.6896398480662Q353.53614181947336,751.6896398480662 349.16814181947336,756.7296398480663Q344.80014181947337,761.7696398480663 344.80014181947337,770.2176398480663Q344.80014181947337,778.6656398480663 349.16814181947336,783.7536398480663Q353.53614181947336,788.8416398480663 360.2561418194734,788.8416398480663Q367.5521418194734,788.8416398480663 371.87214181947337,783.0816398480663L376.4801418194734,786.5376398480663Q370.33614181947337,794.3136398480663 360.2561418194734,794.3136398480663ZM388.09614181947336,793.2576398480663L388.09614181947336,723.9456398480663L393.95214181947335,723.9456398480663L393.95214181947335,753.8016398480663Q395.9681418194734,750.5376398480663 399.66414181947334,748.3296398480663Q403.36014181947337,746.1216398480663 408.0641418194734,746.1216398480663Q415.4561418194734,746.1216398480663 419.9681418194734,750.8256398480663Q424.4801418194734,755.5296398480663 424.4801418194734,764.2656398480663L424.4801418194734,793.2576398480663L418.7201418194734,793.2576398480663L418.7201418194734,765.1296398480663Q418.7201418194734,758.4096398480663 415.5041418194734,755.0496398480662Q412.28814181947337,751.6896398480662 407.2001418194734,751.6896398480662Q403.36014181947337,751.6896398480662 400.33614181947337,753.3696398480663Q397.31214181947337,755.0496398480662 395.63214181947336,757.8816398480662Q393.95214181947335,760.7136398480664 393.95214181947335,764.1696398480663L393.95214181947335,793.2576398480663L388.09614181947336,793.2576398480663ZM438.78414181947335,793.2576398480663L438.78414181947335,747.2736398480663L444.2561418194733,747.2736398480663L444.44814181947334,753.8016398480663Q446.65614181947336,750.5376398480663 450.35214181947333,748.3296398480663Q454.04814181947336,746.1216398480663 458.75214181947337,746.1216398480663Q466.14414181947336,746.1216398480663 470.65614181947336,750.8256398480663Q475.16814181947336,755.5296398480663 475.16814181947336,764.2656398480663L475.16814181947336,793.2576398480663L469.40814181947337,793.2576398480663L469.40814181947337,765.1296398480663Q469.40814181947337,758.4096398480663 466.19214181947336,755.0496398480662Q462.97614181947336,751.6896398480662 457.8881418194734,751.6896398480662Q454.04814181947336,751.6896398480662 451.02414181947336,753.3696398480663Q448.00014181947336,755.0496398480662 446.32014181947335,757.8816398480662Q444.64014181947334,760.7136398480664 444.64014181947334,764.1696398480663L444.64014181947334,793.2576398480663L438.78414181947335,793.2576398480663ZM508.19214181947336,794.3136398480663Q502.04814181947336,794.3136398480663 497.24814181947335,791.2416398480663Q492.44814181947334,788.1696398480663 489.66414181947334,782.7456398480663Q486.88014181947335,777.3216398480663 486.88014181947335,770.2176398480663Q486.88014181947335,763.1136398480663 489.66414181947334,757.6896398480662Q492.44814181947334,752.2656398480663 497.24814181947335,749.1936398480663Q502.04814181947336,746.1216398480663 508.19214181947336,746.1216398480663Q514.4321418194734,746.1216398480663 519.2321418194733,749.1936398480663Q524.0321418194733,752.2656398480663 526.8161418194734,757.6896398480662Q529.6001418194734,763.1136398480663 529.6001418194734,770.2176398480663Q529.6001418194734,777.3216398480663 526.8161418194734,782.7456398480663Q524.0321418194733,788.1696398480663 519.2321418194733,791.2416398480663Q514.4321418194734,794.3136398480663 508.19214181947336,794.3136398480663ZM508.19214181947336,788.8416398480663Q512.7041418194733,788.8416398480663 516.2081418194733,786.5376398480663Q519.7121418194733,784.2336398480663 521.7281418194734,780.0576398480663Q523.7441418194733,775.8816398480662 523.7441418194733,770.2176398480663Q523.7441418194733,764.5536398480663 521.7281418194734,760.3776398480663Q519.7121418194733,756.2016398480663 516.2081418194733,753.8976398480663Q512.7041418194733,751.5936398480662 508.19214181947336,751.5936398480662Q501.47214181947334,751.5936398480662 497.10414181947334,756.6336398480663Q492.73614181947335,761.6736398480663 492.73614181947335,770.2176398480663Q492.73614181947335,778.6656398480663 497.10414181947334,783.7536398480663Q501.47214181947334,788.8416398480663 508.19214181947336,788.8416398480663ZM541.2161418194733,793.2576398480663L541.2161418194733,723.9456398480663L547.0721418194732,723.9456398480663L547.0721418194732,793.2576398480663L541.2161418194733,793.2576398480663ZM580.0961418194734,794.3136398480663Q573.9521418194734,794.3136398480663 569.1521418194734,791.2416398480663Q564.3521418194733,788.1696398480663 561.5681418194733,782.7456398480663Q558.7841418194733,777.3216398480663 558.7841418194733,770.2176398480663Q558.7841418194733,763.1136398480663 561.5681418194733,757.6896398480662Q564.3521418194733,752.2656398480663 569.1521418194734,749.1936398480663Q573.9521418194734,746.1216398480663 580.0961418194734,746.1216398480663Q586.3361418194734,746.1216398480663 591.1361418194733,749.1936398480663Q595.9361418194733,752.2656398480663 598.7201418194734,757.6896398480662Q601.5041418194734,763.1136398480663 601.5041418194734,770.2176398480663Q601.5041418194734,777.3216398480663 598.7201418194734,782.7456398480663Q595.9361418194733,788.1696398480663 591.1361418194733,791.2416398480663Q586.3361418194734,794.3136398480663 580.0961418194734,794.3136398480663ZM580.0961418194734,788.8416398480663Q584.6081418194733,788.8416398480663 588.1121418194733,786.5376398480663Q591.6161418194733,784.2336398480663 593.6321418194734,780.0576398480663Q595.6481418194733,775.8816398480662 595.6481418194733,770.2176398480663Q595.6481418194733,764.5536398480663 593.6321418194734,760.3776398480663Q591.6161418194733,756.2016398480663 588.1121418194733,753.8976398480663Q584.6081418194733,751.5936398480662 580.0961418194734,751.5936398480662Q573.3761418194733,751.5936398480662 569.0081418194734,756.6336398480663Q564.6401418194733,761.6736398480663 564.6401418194733,770.2176398480663Q564.6401418194733,778.6656398480663 569.0081418194734,783.7536398480663Q573.3761418194733,788.8416398480663 580.0961418194734,788.8416398480663ZM631.1681418194732,813.9936398480663Q618.4001418194733,813.9936398480663 611.9681418194733,804.0096398480663L616.7681418194734,800.8416398480663Q621.5681418194733,808.4256398480663 631.1681418194732,808.4256398480663Q638.2721418194733,808.4256398480663 642.0161418194733,803.7696398480663Q645.7601418194733,799.1136398480663 645.7601418194733,789.8016398480663L645.7601418194733,781.5456398480662Q643.3601418194733,785.2896398480663 639.5201418194733,787.4496398480663Q635.6801418194733,789.6096398480663 630.7841418194733,789.6096398480663Q624.9281418194732,789.6096398480663 620.3681418194733,786.9216398480663Q615.8081418194733,784.2336398480663 613.1681418194732,779.3376398480663Q610.5281418194734,774.4416398480663 610.5281418194734,767.8176398480663Q610.5281418194734,761.1936398480663 613.1681418194732,756.3456398480663Q615.8081418194733,751.4976398480663 620.3681418194733,748.8096398480662Q624.9281418194732,746.1216398480663 630.7841418194733,746.1216398480663Q635.7761418194733,746.1216398480663 639.7121418194733,748.3776398480663Q643.6481418194733,750.6336398480663 646.0481418194734,754.5696398480663L646.1441418194734,747.2736398480663L651.5201418194733,747.2736398480663L651.5201418194733,789.8016398480663Q651.5201418194733,802.2816398480663 645.9041418194734,808.1376398480663Q640.2881418194734,813.9936398480663 631.1681418194732,813.9936398480663ZM631.0721418194732,784.2336398480663Q635.3921418194733,784.2336398480663 638.7521418194733,782.1696398480663Q642.1121418194733,780.1056398480663 644.0321418194733,776.4096398480663Q645.9521418194734,772.7136398480664 645.9521418194734,767.8176398480663Q645.9521418194734,762.9216398480663 644.0321418194733,759.2736398480663Q642.1121418194733,755.6256398480663 638.7521418194733,753.5616398480663Q635.3921418194733,751.4976398480663 631.0721418194732,751.4976398480663Q626.8481418194733,751.4976398480663 623.5361418194733,753.5616398480663Q620.2241418194733,755.6256398480663 618.3041418194733,759.2736398480663Q616.3841418194734,762.9216398480663 616.3841418194734,767.8176398480663Q616.3841418194734,772.7136398480664 618.3041418194733,776.4096398480663Q620.2241418194733,780.1056398480663 623.5361418194733,782.1696398480663Q626.8481418194733,784.2336398480663 631.0721418194732,784.2336398480663ZM667.4561418194733,793.2576398480663L667.4561418194733,747.2736398480663L673.2161418194733,747.2736398480663L673.2161418194733,793.2576398480663L667.4561418194733,793.2576398480663ZM670.3361418194734,737.2896398480663Q668.5121418194733,737.2896398480663 667.1681418194732,735.9936398480663Q665.8241418194733,734.6976398480663 665.8241418194733,732.8736398480663Q665.8241418194733,730.9536398480662 667.1681418194732,729.7056398480663Q668.5121418194733,728.4576398480663 670.3361418194734,728.4576398480663Q672.1601418194733,728.4576398480663 673.4081418194733,729.7056398480663Q674.6561418194733,730.9536398480662 674.6561418194733,732.8736398480663Q674.6561418194733,734.6976398480663 673.4081418194733,735.9936398480663Q672.1601418194733,737.2896398480663 670.3361418194734,737.2896398480663ZM707.6801418194734,794.3136398480663Q701.5361418194734,794.3136398480663 696.7361418194733,791.2896398480663Q691.9361418194733,788.2656398480663 689.1521418194734,782.7936398480663Q686.3681418194733,777.3216398480663 686.3681418194733,770.2176398480663Q686.3681418194733,763.1136398480663 689.1521418194734,757.6896398480662Q691.9361418194733,752.2656398480663 696.7361418194733,749.2416398480663Q701.5361418194734,746.2176398480663 707.6801418194734,746.2176398480663Q712.5761418194734,746.2176398480663 716.7521418194733,748.1856398480663Q720.9281418194734,750.1536398480663 723.9041418194734,753.9936398480663L719.2961418194734,757.4496398480663Q714.9761418194734,751.6896398480662 707.6801418194734,751.6896398480662Q700.9601418194734,751.6896398480662 696.5921418194733,756.7296398480663Q692.2241418194733,761.7696398480663 692.2241418194733,770.2176398480663Q692.2241418194733,778.6656398480663 696.5921418194733,783.7536398480663Q700.9601418194734,788.8416398480663 707.6801418194734,788.8416398480663Q714.9761418194734,788.8416398480663 719.2961418194734,783.0816398480663L723.9041418194734,786.5376398480663Q717.7601418194733,794.3136398480663 707.6801418194734,794.3136398480663ZM747.8081418194733,794.1216398480663Q741.0881418194733,794.2176398480663 736.9121418194734,791.0496398480662Q732.7361418194733,787.8816398480662 732.7361418194733,781.8336398480662Q732.7361418194733,777.2256398480663 735.8561418194734,773.7696398480663Q738.9761418194734,770.3136398480663 743.8241418194734,768.3456398480663Q748.6721418194734,766.3776398480663 753.8561418194734,766.3776398480663Q760.9601418194734,766.3776398480663 765.0881418194733,769.7376398480662L765.0881418194733,761.8656398480663Q765.0881418194733,755.4336398480663 762.4001418194733,753.4656398480663Q759.7121418194733,751.4976398480663 753.7601418194733,751.4976398480663Q749.9201418194733,751.4976398480663 745.2161418194734,752.8896398480663Q740.5121418194733,754.2816398480663 737.2481418194734,756.3936398480663L734.4641418194733,751.7856398480662Q738.2081418194733,749.3856398480663 743.5361418194734,747.7536398480663Q748.8641418194734,746.1216398480663 753.7601418194733,746.1216398480663Q762.4961418194733,746.1216398480663 766.6241418194734,749.4816398480663Q770.7521418194733,752.8416398480663 770.7521418194733,761.8656398480663L770.7521418194733,787.3056398480663Q770.7521418194733,789.1296398480663 771.7601418194733,789.3696398480663Q772.7681418194734,789.6096398480663 776.2241418194734,788.9376398480663L776.2241418194734,793.0656398480663Q775.2641418194734,793.4496398480663 773.6321418194733,793.7856398480662Q772.0001418194734,794.1216398480663 770.5601418194733,794.1216398480663Q767.2961418194734,794.1216398480663 766.3361418194734,792.7776398480663Q765.3761418194733,791.4336398480663 765.1841418194733,787.6896398480662Q762.2081418194733,790.9536398480662 757.3121418194734,792.4896398480663Q752.4161418194733,794.0256398480662 747.8081418194733,794.1216398480663ZM748.0961418194734,788.8416398480663Q752.7041418194733,788.7456398480663 756.6881418194733,787.4016398480663Q760.6721418194734,786.0576398480663 763.0241418194734,783.5136398480663Q765.3761418194733,780.9696398480663 765.1841418194733,777.3216398480663Q764.8961418194733,774.3456398480663 761.9201418194733,772.8576398480662Q758.9441418194733,771.3696398480663 754.2401418194734,771.4656398480663Q750.3041418194733,771.4656398480663 746.6561418194733,772.8096398480662Q743.0081418194734,774.1536398480663 740.7521418194733,776.5056398480663Q738.4961418194733,778.8576398480662 738.4961418194733,781.9296398480662Q738.4961418194733,785.4816398480663 741.1841418194733,787.1616398480663Q743.8721418194734,788.8416398480663 748.0961418194734,788.8416398480663ZM786.8801418194734,793.2576398480663L786.8801418194734,723.9456398480663L792.7361418194733,723.9456398480663L792.7361418194733,793.2576398480663L786.8801418194734,793.2576398480663ZM856.8641418194733,794.4096398480663Q849.1841418194733,794.4096398480663 842.8481418194733,791.6736398480663Q836.5121418194733,788.9376398480663 832.1921418194732,783.0816398480663L836.8961418194733,779.8176398480663Q840.4481418194732,784.0416398480663 845.3921418194733,786.3936398480663Q850.3361418194733,788.7456398480663 856.9601418194733,788.7456398480663Q861.4721418194732,788.7456398480663 865.2641418194733,787.4016398480663Q869.0561418194733,786.0576398480663 871.3601418194733,783.2736398480663Q873.6641418194732,780.4896398480663 873.6641418194732,776.3616398480663Q873.6641418194732,772.7136398480664 872.1761418194733,770.0256398480662Q870.6881418194732,767.3376398480663 866.3681418194733,765.3216398480663Q862.0481418194732,763.3056398480663 853.5041418194733,761.7696398480663Q834.6881418194732,758.2176398480663 834.6881418194732,743.1456398480663Q834.6881418194732,737.6736398480663 837.3761418194732,733.4976398480663Q840.0641418194733,729.3216398480663 844.8641418194733,726.9696398480663Q849.6641418194732,724.6176398480663 856.0001418194732,724.6176398480663Q862.7201418194733,724.6176398480663 868.0961418194732,727.1616398480663Q873.4721418194732,729.7056398480663 877.8881418194733,733.9296398480662L873.6641418194732,737.9616398480663Q869.8241418194733,734.6016398480663 865.6001418194733,732.5376398480663Q861.3761418194733,730.4736398480663 855.9041418194732,730.4736398480663Q849.3761418194732,730.4736398480663 845.1041418194733,733.6896398480662Q840.8321418194732,736.9056398480662 840.8321418194732,742.9536398480662Q840.8321418194732,748.2336398480663 844.2401418194733,751.4976398480663Q847.6481418194733,754.7616398480662 856.5761418194733,756.3936398480663Q868.9601418194733,758.6016398480663 874.3361418194733,763.3056398480663Q879.7121418194732,768.0096398480663 879.7121418194732,776.2656398480663Q879.7121418194732,781.9296398480662 876.6881418194732,786.0096398480663Q873.6641418194732,790.0896398480663 868.4801418194733,792.2496398480663Q863.2961418194733,794.4096398480663 856.8641418194733,794.4096398480663ZM911.0081418194733,794.3136398480663Q904.8641418194733,794.3136398480663 900.0641418194733,791.2416398480663Q895.2641418194734,788.1696398480663 892.4801418194734,782.7456398480663Q889.6961418194733,777.3216398480663 889.6961418194733,770.2176398480663Q889.6961418194733,763.1136398480663 892.4801418194734,757.6896398480662Q895.2641418194734,752.2656398480663 900.0641418194733,749.1936398480663Q904.8641418194733,746.1216398480663 911.0081418194733,746.1216398480663Q917.2481418194733,746.1216398480663 922.0481418194734,749.1936398480663Q926.8481418194733,752.2656398480663 929.6321418194733,757.6896398480662Q932.4161418194733,763.1136398480663 932.4161418194733,770.2176398480663Q932.4161418194733,777.3216398480663 929.6321418194733,782.7456398480663Q926.8481418194733,788.1696398480663 922.0481418194734,791.2416398480663Q917.2481418194733,794.3136398480663 911.0081418194733,794.3136398480663ZM911.0081418194733,788.8416398480663Q915.5201418194733,788.8416398480663 919.0241418194734,786.5376398480663Q922.5281418194734,784.2336398480663 924.5441418194733,780.0576398480663Q926.5601418194733,775.8816398480662 926.5601418194733,770.2176398480663Q926.5601418194733,764.5536398480663 924.5441418194733,760.3776398480663Q922.5281418194734,756.2016398480663 919.0241418194734,753.8976398480663Q915.5201418194733,751.5936398480662 911.0081418194733,751.5936398480662Q904.2881418194734,751.5936398480662 899.9201418194733,756.6336398480663Q895.5521418194734,761.6736398480663 895.5521418194734,770.2176398480663Q895.5521418194734,778.6656398480663 899.9201418194733,783.7536398480663Q904.2881418194734,788.8416398480663 911.0081418194733,788.8416398480663ZM944.0321418194734,793.2576398480663L944.0321418194734,723.9456398480663L949.8881418194734,723.9456398480663L949.8881418194734,793.2576398480663L944.0321418194734,793.2576398480663ZM979.7441418194733,794.3136398480663Q972.4481418194733,794.3136398480663 967.9361418194733,789.6096398480663Q963.4241418194733,784.9056398480662 963.4241418194733,776.1696398480663L963.4241418194733,747.2736398480663L969.1841418194733,747.2736398480663L969.1841418194733,775.4016398480663Q969.1841418194733,782.1216398480663 972.4001418194733,785.4816398480663Q975.6161418194733,788.8416398480663 980.7041418194733,788.8416398480663Q986.5601418194733,788.8416398480663 990.2081418194733,785.1936398480663Q993.8561418194734,781.5456398480662 993.8561418194734,776.2656398480663L993.8561418194734,747.2736398480663L999.7121418194733,747.2736398480663L999.7121418194733,793.1616398480663L994.2401418194734,793.1616398480663L994.0481418194734,786.7296398480663Q992.0321418194733,789.8976398480663 988.2881418194734,792.1056398480663Q984.5441418194733,794.3136398480663 979.7441418194733,794.3136398480663ZM1031.9681418194732,794.3136398480663Q1025.8241418194734,794.3136398480663 1022.7521418194733,791.7216398480663Q1019.6801418194733,789.1296398480663 1019.6801418194733,782.4096398480663L1019.6801418194733,752.6496398480663L1009.6961418194733,752.6496398480663L1009.6961418194733,747.2736398480663L1019.6801418194733,747.2736398480663L1019.6801418194733,730.3776398480663L1025.4401418194734,730.3776398480663L1025.4401418194734,747.2736398480663L1039.4561418194733,747.2736398480663L1039.4561418194733,752.6496398480663L1025.4401418194734,752.6496398480663L1025.4401418194734,781.4496398480663Q1025.4401418194734,785.7696398480663 1027.2641418194733,787.3536398480663Q1029.0881418194733,788.9376398480663 1032.9281418194732,788.9376398480663Q1034.5601418194733,788.9376398480663 1036.3841418194734,788.4576398480663Q1038.2081418194734,787.9776398480662 1039.4561418194733,787.4016398480663L1039.4561418194733,793.0656398480663Q1038.1121418194734,793.5456398480662 1036.0001418194734,793.9296398480662Q1033.8881418194733,794.3136398480663 1031.9681418194732,794.3136398480663ZM1051.8401418194733,793.2576398480663L1051.8401418194733,747.2736398480663L1057.6001418194733,747.2736398480663L1057.6001418194733,793.2576398480663L1051.8401418194733,793.2576398480663ZM1054.7201418194732,737.2896398480663Q1052.8961418194733,737.2896398480663 1051.5521418194733,735.9936398480663Q1050.2081418194734,734.6976398480663 1050.2081418194734,732.8736398480663Q1050.2081418194734,730.9536398480662 1051.5521418194733,729.7056398480663Q1052.8961418194733,728.4576398480663 1054.7201418194732,728.4576398480663Q1056.5441418194732,728.4576398480663 1057.7921418194733,729.7056398480663Q1059.0401418194733,730.9536398480662 1059.0401418194733,732.8736398480663Q1059.0401418194733,734.6976398480663 1057.7921418194733,735.9936398480663Q1056.5441418194732,737.2896398480663 1054.7201418194732,737.2896398480663ZM1092.0641418194732,794.3136398480663Q1085.9201418194732,794.3136398480663 1081.1201418194732,791.2416398480663Q1076.3201418194733,788.1696398480663 1073.5361418194734,782.7456398480663Q1070.7521418194733,777.3216398480663 1070.7521418194733,770.2176398480663Q1070.7521418194733,763.1136398480663 1073.5361418194734,757.6896398480662Q1076.3201418194733,752.2656398480663 1081.1201418194732,749.1936398480663Q1085.9201418194732,746.1216398480663 1092.0641418194732,746.1216398480663Q1098.3041418194732,746.1216398480663 1103.1041418194732,749.1936398480663Q1107.9041418194734,752.2656398480663 1110.6881418194732,757.6896398480662Q1113.472141819473,763.1136398480663 1113.472141819473,770.2176398480663Q1113.472141819473,777.3216398480663 1110.6881418194732,782.7456398480663Q1107.9041418194734,788.1696398480663 1103.1041418194732,791.2416398480663Q1098.3041418194732,794.3136398480663 1092.0641418194732,794.3136398480663ZM1092.0641418194732,788.8416398480663Q1096.5761418194734,788.8416398480663 1100.0801418194733,786.5376398480663Q1103.5841418194732,784.2336398480663 1105.6001418194733,780.0576398480663Q1107.6161418194733,775.8816398480662 1107.6161418194733,770.2176398480663Q1107.6161418194733,764.5536398480663 1105.6001418194733,760.3776398480663Q1103.5841418194732,756.2016398480663 1100.0801418194733,753.8976398480663Q1096.5761418194734,751.5936398480662 1092.0641418194732,751.5936398480662Q1085.3441418194734,751.5936398480662 1080.9761418194732,756.6336398480663Q1076.6081418194733,761.6736398480663 1076.6081418194733,770.2176398480663Q1076.6081418194733,778.6656398480663 1080.9761418194732,783.7536398480663Q1085.3441418194734,788.8416398480663 1092.0641418194732,788.8416398480663ZM1125.0881418194733,793.2576398480663L1125.0881418194733,747.2736398480663L1130.5601418194733,747.2736398480663L1130.7521418194733,753.8016398480663Q1132.9601418194734,750.5376398480663 1136.6561418194733,748.3296398480663Q1140.3521418194732,746.1216398480663 1145.0561418194734,746.1216398480663Q1152.4481418194732,746.1216398480663 1156.9601418194734,750.8256398480663Q1161.4721418194733,755.5296398480663 1161.4721418194733,764.2656398480663L1161.4721418194733,793.2576398480663L1155.7121418194733,793.2576398480663L1155.7121418194733,765.1296398480663Q1155.7121418194733,758.4096398480663 1152.4961418194732,755.0496398480662Q1149.2801418194733,751.6896398480662 1144.1921418194734,751.6896398480662Q1140.3521418194732,751.6896398480662 1137.3281418194733,753.3696398480663Q1134.3041418194734,755.0496398480662 1132.6241418194732,757.8816398480662Q1130.9441418194733,760.7136398480664 1130.9441418194733,764.1696398480663L1130.9441418194733,793.2576398480663L1125.0881418194733,793.2576398480663ZM1191.5201418194733,794.3136398480663Q1185.376141819473,794.3136398480663 1180.3841418194734,791.9136398480663Q1175.3921418194732,789.5136398480663 1172.3201418194733,785.0976398480663L1176.5441418194732,781.5456398480662Q1178.8481418194733,785.0976398480663 1182.8321418194732,787.0176398480663Q1186.8161418194732,788.9376398480663 1191.7121418194733,788.9376398480663Q1196.4161418194733,788.9376398480663 1199.7281418194734,786.8736398480663Q1203.0401418194733,784.8096398480664 1203.0401418194733,780.3936398480663Q1203.0401418194733,776.4576398480663 1199.8721418194732,774.9216398480663Q1196.7041418194733,773.3856398480663 1190.1761418194733,772.0416398480663Q1186.1441418194731,771.1776398480663 1182.5441418194732,769.9296398480662Q1178.9441418194733,768.6816398480663 1176.7361418194732,766.1376398480663Q1174.5281418194731,763.5936398480662 1174.5281418194731,759.0816398480663Q1174.5281418194731,754.9536398480662 1176.7841418194732,752.0736398480663Q1179.0401418194733,749.1936398480663 1182.7841418194732,747.6576398480663Q1186.5281418194731,746.1216398480663 1190.7521418194733,746.1216398480663Q1202.0801418194733,746.1216398480663 1207.3601418194733,754.1856398480663L1203.4241418194733,757.7376398480662Q1199.4881418194732,751.4976398480663 1190.8481418194733,751.4976398480663Q1185.8561418194731,751.4976398480663 1183.1681418194732,753.6576398480663Q1180.4801418194734,755.8176398480663 1180.4801418194734,758.9856398480663Q1180.4801418194734,762.5376398480663 1183.4081418194733,764.0256398480662Q1186.3361418194731,765.5136398480663 1192.4801418194734,766.8576398480662Q1196.8001418194733,767.8176398480663 1200.5921418194732,769.2576398480663Q1204.3841418194734,770.6976398480663 1206.6881418194732,773.2896398480663Q1208.9921418194733,775.8816398480662 1208.9921418194733,780.4896398480663Q1208.9921418194733,786.6336398480663 1204.2401418194731,790.4736398480663Q1199.4881418194732,794.3136398480663 1191.5201418194733,794.3136398480663ZM1247.5841418194732,793.2576398480663L1247.5841418194732,726.0576398480663L1267.0721418194732,726.0576398480663Q1275.4241418194733,726.0576398480663 1281.568141819473,728.6976398480663Q1287.7121418194731,731.3376398480663 1291.6961418194733,735.9936398480663Q1295.6801418194732,740.6496398480663 1297.6481418194733,746.7456398480663Q1299.6161418194733,752.8416398480663 1299.6161418194733,759.6576398480663Q1299.6161418194733,766.4736398480663 1297.6481418194733,772.5696398480663Q1295.6801418194732,778.6656398480663 1291.6961418194733,783.3216398480663Q1287.7121418194731,787.9776398480662 1281.568141819473,790.6176398480663Q1275.4241418194733,793.2576398480663 1267.0721418194732,793.2576398480663L1247.5841418194732,793.2576398480663ZM1253.4401418194732,787.5936398480662L1266.7841418194732,787.5936398480662Q1276.2881418194731,787.5936398480662 1282.1921418194731,783.7056398480663Q1288.0961418194731,779.8176398480663 1290.8321418194732,773.4336398480663Q1293.568141819473,767.0496398480662 1293.568141819473,759.6576398480663Q1293.568141819473,752.1696398480663 1290.8321418194732,745.7856398480662Q1288.0961418194731,739.4016398480663 1282.1921418194731,735.5136398480663Q1276.2881418194731,731.6256398480663 1266.7841418194732,731.6256398480663L1253.4401418194732,731.6256398480663L1253.4401418194732,787.5936398480662ZM1330.0481418194734,794.3136398480663Q1323.8081418194733,794.3136398480663 1318.9601418194734,791.3856398480663Q1314.1121418194732,788.4576398480663 1311.3761418194733,783.0336398480663Q1308.6401418194732,777.6096398480663 1308.6401418194732,770.2176398480663Q1308.6401418194732,763.0176398480663 1311.3761418194733,757.6416398480662Q1314.1121418194732,752.2656398480663 1318.9121418194734,749.2416398480663Q1323.7121418194733,746.2176398480663 1329.8561418194734,746.2176398480663Q1336.0961418194734,746.2176398480663 1340.4641418194733,749.3376398480663Q1344.8321418194732,752.4576398480663 1347.1361418194733,757.4016398480663Q1349.4401418194732,762.3456398480663 1349.4401418194732,767.8176398480663L1349.4401418194732,769.7376398480662L1314.4961418194732,769.7376398480662Q1314.3041418194732,778.3776398480663 1318.5761418194734,783.7056398480663Q1322.8481418194733,789.0336398480663 1330.1441418194734,789.0336398480663Q1335.5201418194733,789.0336398480663 1339.1681418194732,786.2976398480663Q1342.8161418194734,783.5616398480663 1345.1201418194732,778.1856398480663L1349.9201418194732,780.9696398480663Q1343.7761418194732,794.3136398480663 1330.0481418194734,794.3136398480663ZM1314.8801418194732,764.7456398480663L1343.6801418194732,764.7456398480663Q1343.2001418194732,761.0016398480662 1341.3281418194733,757.9296398480662Q1339.4561418194733,754.8576398480662 1336.5281418194734,753.0336398480663Q1333.6001418194733,751.2096398480663 1329.8561418194734,751.2096398480663Q1324.0001418194734,751.2096398480663 1320.0161418194732,754.8096398480662Q1316.0321418194733,758.4096398480663 1314.8801418194732,764.7456398480663ZM1361.5361418194734,793.2576398480663L1361.5361418194734,723.9456398480663L1367.3921418194734,723.9456398480663L1367.3921418194734,793.2576398480663L1361.5361418194734,793.2576398480663ZM1383.3281418194736,793.2576398480663L1383.3281418194736,747.2736398480663L1389.0881418194735,747.2736398480663L1389.0881418194735,793.2576398480663L1383.3281418194736,793.2576398480663ZM1386.2081418194734,737.2896398480663Q1384.3841418194734,737.2896398480663 1383.0401418194735,735.9936398480663Q1381.6961418194735,734.6976398480663 1381.6961418194735,732.8736398480663Q1381.6961418194735,730.9536398480662 1383.0401418194735,729.7056398480663Q1384.3841418194734,728.4576398480663 1386.2081418194734,728.4576398480663Q1388.0321418194735,728.4576398480663 1389.2801418194736,729.7056398480663Q1390.5281418194734,730.9536398480662 1390.5281418194734,732.8736398480663Q1390.5281418194734,734.6976398480663 1389.2801418194736,735.9936398480663Q1388.0321418194735,737.2896398480663 1386.2081418194734,737.2896398480663ZM1418.6561418194735,793.2576398480663L1400.5121418194735,747.2736398480663L1406.5601418194735,747.2736398480663L1421.0561418194734,784.9056398480662L1435.1681418194735,747.2736398480663L1441.0241418194735,747.2736398480663L1423.5521418194735,793.2576398480663L1418.6561418194735,793.2576398480663ZM1467.8081418194736,794.3136398480663Q1461.5681418194736,794.3136398480663 1456.7201418194736,791.3856398480663Q1451.8721418194734,788.4576398480663 1449.1361418194736,783.0336398480663Q1446.4001418194734,777.6096398480663 1446.4001418194734,770.2176398480663Q1446.4001418194734,763.0176398480663 1449.1361418194736,757.6416398480662Q1451.8721418194734,752.2656398480663 1456.6721418194736,749.2416398480663Q1461.4721418194736,746.2176398480663 1467.6161418194736,746.2176398480663Q1473.8561418194736,746.2176398480663 1478.2241418194735,749.3376398480663Q1482.5921418194735,752.4576398480663 1484.8961418194735,757.4016398480663Q1487.2001418194734,762.3456398480663 1487.2001418194734,767.8176398480663L1487.2001418194734,769.7376398480662L1452.2561418194734,769.7376398480662Q1452.0641418194734,778.3776398480663 1456.3361418194736,783.7056398480663Q1460.6081418194735,789.0336398480663 1467.9041418194736,789.0336398480663Q1473.2801418194736,789.0336398480663 1476.9281418194735,786.2976398480663Q1480.5761418194736,783.5616398480663 1482.8801418194735,778.1856398480663L1487.6801418194734,780.9696398480663Q1481.5361418194734,794.3136398480663 1467.8081418194736,794.3136398480663ZM1452.6401418194735,764.7456398480663L1481.4401418194734,764.7456398480663Q1480.9601418194734,761.0016398480662 1479.0881418194735,757.9296398480662Q1477.2161418194735,754.8576398480662 1474.2881418194736,753.0336398480663Q1471.3601418194735,751.2096398480663 1467.6161418194736,751.2096398480663Q1461.7601418194736,751.2096398480663 1457.7761418194734,754.8096398480662Q1453.7921418194735,758.4096398480663 1452.6401418194735,764.7456398480663ZM1499.2961418194736,793.2576398480663L1499.2961418194736,747.2736398480663L1504.8641418194736,747.2736398480663L1505.1521418194736,755.2416398480663Q1507.0721418194737,751.2096398480663 1511.2481418194736,748.6656398480663Q1515.4241418194736,746.1216398480663 1520.5121418194735,746.1216398480663Q1521.8561418194736,746.1216398480663 1523.2481418194736,746.2656398480663Q1524.6401418194737,746.4096398480663 1525.6001418194735,746.6976398480663L1525.6001418194735,752.3616398480663Q1524.7361418194737,752.1696398480663 1523.1521418194736,751.9776398480662Q1521.5681418194736,751.7856398480662 1519.9361418194735,751.7856398480662Q1515.9041418194736,751.7856398480662 1512.5441418194737,753.6576398480663Q1509.1841418194736,755.5296398480663 1507.2161418194737,758.6496398480663Q1505.2481418194736,761.7696398480663 1505.2481418194736,765.7056398480663L1505.2481418194736,793.2576398480663L1499.2961418194736,793.2576398480663ZM1554.2081418194737,794.3136398480663Q1547.9681418194737,794.3136398480663 1543.1201418194737,791.3856398480663Q1538.2721418194735,788.4576398480663 1535.5361418194736,783.0336398480663Q1532.8001418194735,777.6096398480663 1532.8001418194735,770.2176398480663Q1532.8001418194735,763.0176398480663 1535.5361418194736,757.6416398480662Q1538.2721418194735,752.2656398480663 1543.0721418194737,749.2416398480663Q1547.8721418194737,746.2176398480663 1554.0161418194737,746.2176398480663Q1560.2561418194737,746.2176398480663 1564.6241418194736,749.3376398480663Q1568.9921418194735,752.4576398480663 1571.2961418194736,757.4016398480663Q1573.6001418194735,762.3456398480663 1573.6001418194735,767.8176398480663L1573.6001418194735,769.7376398480662L1538.6561418194735,769.7376398480662Q1538.4641418194735,778.3776398480663 1542.7361418194737,783.7056398480663Q1547.0081418194736,789.0336398480663 1554.3041418194737,789.0336398480663Q1559.6801418194736,789.0336398480663 1563.3281418194736,786.2976398480663Q1566.9761418194737,783.5616398480663 1569.2801418194736,778.1856398480663L1574.0801418194735,780.9696398480663Q1567.9361418194735,794.3136398480663 1554.2081418194737,794.3136398480663ZM1539.0401418194735,764.7456398480663L1567.8401418194735,764.7456398480663Q1567.3601418194735,761.0016398480662 1565.4881418194736,757.9296398480662Q1563.6161418194736,754.8576398480662 1560.6881418194737,753.0336398480663Q1557.7601418194736,751.2096398480663 1554.0161418194737,751.2096398480663Q1548.1601418194737,751.2096398480663 1544.1761418194735,754.8096398480662Q1540.1921418194736,758.4096398480663 1539.0401418194735,764.7456398480663ZM1604.4161418194738,794.3136398480663Q1598.2721418194737,794.3136398480663 1593.4721418194738,791.2896398480663Q1588.6721418194736,788.2656398480663 1585.8881418194737,782.8416398480663Q1583.1041418194736,777.4176398480663 1583.1041418194736,770.2176398480663Q1583.1041418194736,763.0176398480663 1585.8881418194737,757.6416398480662Q1588.6721418194736,752.2656398480663 1593.4721418194738,749.2416398480663Q1598.2721418194737,746.2176398480663 1604.4161418194738,746.2176398480663Q1609.6001418194737,746.2176398480663 1613.6321418194736,748.6656398480663Q1617.6641418194736,751.1136398480663 1620.0641418194737,755.3376398480663L1620.0641418194737,723.9456398480663L1625.9201418194737,723.9456398480663L1625.9201418194737,793.2576398480663L1620.5441418194737,793.2576398480663L1620.4481418194737,784.8096398480664Q1617.9521418194736,789.2256398480663 1613.8241418194737,791.7696398480663Q1609.6961418194737,794.3136398480663 1604.4161418194738,794.3136398480663ZM1604.6081418194738,788.8416398480663Q1609.1201418194737,788.8416398480663 1612.6241418194736,786.5376398480663Q1616.1281418194737,784.2336398480663 1618.1441418194736,780.0576398480663Q1620.1601418194737,775.8816398480662 1620.1601418194737,770.2176398480663Q1620.1601418194737,764.5536398480663 1618.1441418194736,760.4256398480663Q1616.1281418194737,756.2976398480663 1612.6241418194736,753.9936398480663Q1609.1201418194737,751.6896398480662 1604.6081418194738,751.6896398480662Q1600.0961418194736,751.6896398480662 1596.5441418194737,753.9936398480663Q1592.9921418194738,756.2976398480663 1590.9761418194737,760.4256398480663Q1588.9601418194736,764.5536398480663 1588.9601418194736,770.2176398480663Q1588.9601418194736,775.8816398480662 1590.9761418194737,780.0576398480663Q1592.9921418194738,784.2336398480663 1596.5441418194737,786.5376398480663Q1600.0961418194736,788.8416398480663 1604.6081418194738,788.8416398480663Z"  fill="#114169" stroke="#114169" stroke-width="0" stroke-dasharray="none" stroke-dashoffset="0" stroke-linecap="butt" stroke-linejoin="miter" stroke-miterlimit="4"  /></g></g></g></g></g></g></svg>