<?xml version="1.0" encoding="UTF-8" standalone="no"?>
<svg
   xmlns:dc="http://purl.org/dc/elements/1.1/"
   xmlns:cc="http://creativecommons.org/ns#"
   xmlns:rdf="http://www.w3.org/1999/02/22-rdf-syntax-ns#"
   xmlns:svg="http://www.w3.org/2000/svg"
   xmlns="http://www.w3.org/2000/svg"
   xmlns:sodipodi="http://sodipodi.sourceforge.net/DTD/sodipodi-0.dtd"
   xmlns:inkscape="http://www.inkscape.org/namespaces/inkscape"
   version="1.1"
   width="1000"
   height="1000"
   viewBox="0 0 1000 1000"
   xml:space="preserve"
   id="svg43"
   sodipodi:docname="Untitled.svg"
   inkscape:version="1.0.2 (e86c8708, 2021-01-15)"><metadata
   id="metadata47"><rdf:RDF><cc:Work
       rdf:about=""><dc:format>image/svg+xml</dc:format><dc:type
         rdf:resource="http://purl.org/dc/dcmitype/StillImage" /></cc:Work></rdf:RDF></metadata><sodipodi:namedview
   pagecolor="#ffffff"
   bordercolor="#666666"
   borderopacity="1"
   objecttolerance="10"
   gridtolerance="10"
   guidetolerance="10"
   inkscape:pageopacity="0"
   inkscape:pageshadow="2"
   inkscape:window-width="1792"
   inkscape:window-height="975"
   id="namedview45"
   showgrid="false"
   inkscape:lockguides="true"
   inkscape:zoom="0.5"
   inkscape:cx="646.7226"
   inkscape:cy="366.85442"
   inkscape:window-x="0"
   inkscape:window-y="25"
   inkscape:window-maximized="1"
   inkscape:current-layer="svg43" />
<desc
   id="desc10">Created with Fabric.js 3.5.0</desc>
<defs
   id="defs12">

		
		
		
		
		
		


</defs>
<rect
   x="0"
   y="337.33563"
   width="100%"
   height="13.069159%"
   fill="rgba(169,28,28,0)"
   id="rect14"
   style="stroke-width:0.361513;fill:none" />
<g
   transform="matrix(904.40276,0,0,104.98032,45286.733,5515.9774)"
   id="g18">
<rect
   style="opacity:1;fill:#222222;fill-opacity:0;fill-rule:nonzero;stroke:none;stroke-width:1;stroke-linecap:butt;stroke-linejoin:miter;stroke-miterlimit:4;stroke-dasharray:none;stroke-dashoffset:0"
   x="-50"
   y="-50"
   rx="0"
   ry="0"
   width="100"
   height="100"
   id="rect16" />
</g><g
   transform="matrix(0.95831853,0,0,0.94023983,604.09813,510.78487)"
   id="g22">
<path
   style="opacity:1;fill:#ffffff;fill-opacity:0;fill-rule:nonzero;stroke:none;stroke-width:1;stroke-linecap:butt;stroke-linejoin:miter;stroke-miterlimit:4;stroke-dasharray:none;stroke-dashoffset:0"
   transform="translate(-960,-540)"
   d="M 0,0 V 1080 H 1920 V 0 Z"
   stroke-linecap="round"
   id="path20" />
</g><g
   id="g55"
   transform="matrix(0.95831853,0,0,0.94023983,484.98377,89.2359)"><g
     transform="translate(-220.3496,3.664)"
     id="g26"
     inkscape:export-filename="/Users/tejas.shah/thehigglers-logo for publisher.png"
     inkscape:export-xdpi="43.029903"
     inkscape:export-ydpi="43.029903">
<path
   style="opacity:1;fill:#114169;fill-rule:nonzero;stroke:#114169;stroke-width:0;stroke-linecap:butt;stroke-linejoin:miter;stroke-miterlimit:4;stroke-dasharray:none;stroke-dashoffset:0"
   transform="translate(-650.639,-340.1701)"
   d="m 424.84703,364.45808 v -61.632 h -22.08 v -5.568 h 50.208 v 5.568 h -22.08 v 61.632 z m 38.784,0 v -69.312 h 5.856 v 29.856 q 2.016,-3.264 5.712,-5.472 3.696,-2.208 8.4,-2.208 7.392,0 11.904,4.704 4.512,4.704 4.512,13.44 v 28.992 h -5.76 v -28.128 q 0,-6.72 -3.216,-10.08 -3.216,-3.36 -8.304,-3.36 -3.84,0 -6.864,1.68 -3.024,1.68 -4.704,4.512 -1.68,2.832 -1.68,6.288 v 29.088 z m 69.504,1.056 q -6.24,0 -11.088,-2.928 -4.848,-2.928 -7.584,-8.352 -2.736,-5.424 -2.736,-12.816 0,-7.2 2.736,-12.576 2.736,-5.376 7.536,-8.4 4.8,-3.024 10.944,-3.024 6.24,0 10.608,3.12 4.368,3.12 6.672,8.064 2.304,4.944 2.304,10.416 v 1.92 h -34.944 q -0.192,8.64 4.08,13.968 4.272,5.328 11.568,5.328 5.376,0 9.024,-2.736 3.648,-2.736 5.952,-8.112 l 4.8,2.784 q -6.144,13.344 -19.872,13.344 z m -15.168,-29.568 h 28.8 q -0.48,-3.744 -2.352,-6.816 -1.872,-3.072 -4.8,-4.896 -2.928,-1.824 -6.672,-1.824 -5.856,0 -9.84,3.6 -3.984,3.6 -5.136,9.936 z m 47.616,28.512 v -67.2 h 5.856 v 29.28 h 37.632 v -29.28 h 5.952 v 67.2 h -5.952 v -32.352 h -37.632 v 32.352 z m 66.24,0 v -45.984 h 5.76 v 45.984 z m 2.88,-55.968 q -1.824,0 -3.168,-1.296 -1.344,-1.296 -1.344,-3.12 0,-1.92 1.344,-3.168 1.344,-1.248 3.168,-1.248 1.824,0 3.072,1.248 1.248,1.248 1.248,3.168 0,1.824 -1.248,3.12 -1.248,1.296 -3.072,1.296 z m 36.672,76.704 q -12.768,0 -19.2,-9.984 l 4.8,-3.168 q 4.8,7.584 14.4,7.584 7.104,0 10.848,-4.656 3.744,-4.656 3.744,-13.968 v -8.256 q -2.4,3.744 -6.24,5.904 -3.84,2.16 -8.736,2.16 -5.856,0 -10.416,-2.688 -4.56,-2.688 -7.2,-7.584 -2.64,-4.896 -2.64,-11.52 0,-6.624 2.64,-11.472 2.64,-4.848 7.2,-7.536 4.56,-2.688 10.416,-2.688 4.992,0 8.928,2.256 3.936,2.256 6.336,6.192 l 0.096,-7.296 h 5.376 v 42.528 q 0,12.48 -5.616,18.336 -5.616,5.856 -14.736,5.856 z m -0.096,-29.76 q 4.32,0 7.68,-2.064 3.36,-2.064 5.28,-5.76 1.92,-3.696 1.92,-8.592 0,-4.896 -1.92,-8.544 -1.92,-3.648 -5.28,-5.712 -3.36,-2.064 -7.68,-2.064 -4.224,0 -7.536,2.064 -3.312,2.064 -5.232,5.712 -1.92,3.648 -1.92,8.544 0,4.896 1.92,8.592 1.92,3.696 5.232,5.76 3.312,2.064 7.536,2.064 z m 52.8,29.76 q -12.768,0 -19.2,-9.984 l 4.8,-3.168 q 4.8,7.584 14.4,7.584 7.104,0 10.848,-4.656 3.744,-4.656 3.744,-13.968 v -8.256 q -2.4,3.744 -6.24,5.904 -3.84,2.16 -8.736,2.16 -5.856,0 -10.416,-2.688 -4.56,-2.688 -7.2,-7.584 -2.64,-4.896 -2.64,-11.52 0,-6.624 2.64,-11.472 2.64,-4.848 7.2,-7.536 4.56,-2.688 10.416,-2.688 4.992,0 8.928,2.256 3.936,2.256 6.336,6.192 l 0.096,-7.296 h 5.376 v 42.528 q 0,12.48 -5.616,18.336 -5.616,5.856 -14.736,5.856 z m -0.096,-29.76 q 4.32,0 7.68,-2.064 3.36,-2.064 5.28,-5.76 1.92,-3.696 1.92,-8.592 0,-4.896 -1.92,-8.544 -1.92,-3.648 -5.28,-5.712 -3.36,-2.064 -7.68,-2.064 -4.224,0 -7.536,2.064 -3.312,2.064 -5.232,5.712 -1.92,3.648 -1.92,8.544 0,4.896 1.92,8.592 1.92,3.696 5.232,5.76 3.312,2.064 7.536,2.064 z m 34.752,9.024 v -69.312 h 5.856 v 69.312 z m 38.976,1.056 q -6.24,0 -11.088,-2.928 -4.848,-2.928 -7.584,-8.352 -2.736,-5.424 -2.736,-12.816 0,-7.2 2.736,-12.576 2.736,-5.376 7.536,-8.4 4.8,-3.024 10.944,-3.024 6.24,0 10.608,3.12 4.368,3.12 6.672,8.064 2.304,4.944 2.304,10.416 v 1.92 h -34.944 q -0.192,8.64 4.08,13.968 4.272,5.328 11.568,5.328 5.376,0 9.024,-2.736 3.648,-2.736 5.952,-8.112 l 4.8,2.784 q -6.144,13.344 -19.872,13.344 z m -15.168,-29.568 h 28.8 q -0.48,-3.744 -2.352,-6.816 -1.872,-3.072 -4.8,-4.896 -2.928,-1.824 -6.672,-1.824 -5.856,0 -9.84,3.6 -3.984,3.6 -5.136,9.936 z m 46.656,28.512 v -45.984 h 5.568 l 0.288,7.968 q 1.92,-4.032 6.096,-6.576 4.176,-2.544 9.264,-2.544 1.344,0 2.736,0.144 1.392,0.144 2.352,0.432 v 5.664 q -0.864,-0.192 -2.448,-0.384 -1.584,-0.192 -3.216,-0.192 -4.032,0 -7.392,1.872 -3.36,1.872 -5.328,4.992 -1.968,3.12 -1.968,7.056 v 27.552 z m 51.84,1.056 q -6.144,0 -11.136,-2.4 -4.992,-2.4 -8.064,-6.816 l 4.224,-3.552 q 2.304,3.552 6.288,5.472 3.984,1.92 8.88,1.92 4.704,0 8.016,-2.064 3.312,-2.064 3.312,-6.48 0,-3.936 -3.168,-5.472 -3.168,-1.536 -9.696,-2.88 -4.032,-0.864 -7.632,-2.112 -3.6,-1.248 -5.808,-3.792 -2.208,-2.544 -2.208,-7.056 0,-4.128 2.256,-7.008 2.256,-2.88 6,-4.416 3.744,-1.536 7.968,-1.536 11.328,0 16.608,8.064 l -3.936,3.552 q -3.936,-6.24 -12.576,-6.24 -4.992,0 -7.68,2.16 -2.688,2.16 -2.688,5.328 0,3.552 2.928,5.04 2.928,1.488 9.072,2.832 4.32,0.96 8.112,2.4 3.792,1.44 6.096,4.032 2.304,2.592 2.304,7.2 0,6.144 -4.752,9.984 -4.752,3.84 -12.72,3.84 z"
   stroke-linecap="round"
   id="path24" />
</g><g
     transform="translate(268.9796,3.04)"
     id="g30"
     inkscape:export-filename="/Users/tejas.shah/thehigglers-logo for publisher.png"
     inkscape:export-xdpi="43.029903"
     inkscape:export-ydpi="43.029903">
<path
   style="opacity:1;fill:#114169;fill-rule:nonzero;stroke:#114169;stroke-width:0;stroke-linecap:butt;stroke-linejoin:miter;stroke-miterlimit:4;stroke-dasharray:none;stroke-dashoffset:0"
   transform="translate(-1139.9682,-339.5461)"
   d="m 977.44022,365.99408 q -9.12,0 -16.272,-4.32 -7.152,-4.32 -11.184,-12.24 -4.032,-7.92 -4.032,-18.576 0,-10.752 4.032,-18.672 4.032,-7.92 11.184,-12.288 7.152,-4.368 16.272,-4.368 8.448,0 15.168,3.744 6.72,3.744 10.84798,10.464 l -9.88798,5.76 q -2.688,-4.32 -6.768,-6.72 -4.08,-2.4 -9.36,-2.4 -5.952,0 -10.464,3.024 -4.512,3.024 -6.96,8.544 -2.448,5.52 -2.448,12.912 0,7.296 2.448,12.816 2.448,5.52 6.96,8.544 4.512,3.024 10.464,3.024 5.28,0 9.36,-2.4 4.08,-2.4 6.768,-6.72 l 9.88798,5.76 q -4.12798,6.624 -10.84798,10.368 -6.72,3.744 -15.168,3.744 z m 55.29598,-0.48 q -6.336,0 -11.376,-3.024 -5.04,-3.024 -7.968,-8.448 -2.928,-5.424 -2.928,-12.72 0,-7.296 2.928,-12.72 2.928,-5.424 7.968,-8.448 5.04,-3.024 11.376,-3.024 6.528,0 11.568,3.024 5.04,3.024 7.92,8.448 2.88,5.424 2.88,12.72 0,7.296 -2.88,12.72 -2.88,5.424 -7.92,8.448 -5.04,3.024 -11.568,3.024 z m 0,-9.792 q 5.088,0 8.304,-3.744 3.216,-3.744 3.216,-10.656 0,-6.912 -3.216,-10.656 -3.216,-3.744 -8.304,-3.744 -4.992,0 -8.16,3.744 -3.168,3.744 -3.168,10.656 0,6.912 3.168,10.656 3.168,3.744 8.16,3.744 z m 31.68,8.736 v -46.176 h 9.696 l 0.672,5.568 q 1.344,-2.88 4.512,-4.8 3.168,-1.92 7.296,-1.92 4.512,0 7.872,2.112 3.36,2.112 5.184,6.048 1.824,-3.552 5.328,-5.856 3.504,-2.304 8.016,-2.304 6.816,0 10.992,4.752 4.176,4.752 4.176,13.392 v 29.184 h -10.944 v -26.688 q 0,-5.088 -1.824,-7.968 -1.824,-2.88 -5.088,-2.88 -4.128,0 -6.384,2.976 -2.256,2.976 -2.256,8.448 v 26.112 h -10.848 v -26.688 q 0,-5.088 -1.92,-7.968 -1.92,-2.88 -5.184,-2.88 -4.032,0 -6.24,3.024 -2.208,3.024 -2.208,8.4 v 26.112 z m 75.456,18.912 v -65.088 h 9.408 l 0.576,5.088 q 4.896,-6.24 12.864,-6.24 6.432,0 11.472,2.88 5.04,2.88 7.92,8.304 2.88,5.424 2.88,13.008 0,7.584 -2.88,13.008 -2.88,5.424 -7.92,8.304 -5.04,2.88 -11.472,2.88 -3.552,0 -6.624,-1.392 -3.072,-1.392 -5.376,-3.888 v 23.136 z m 22.464,-27.648 q 5.088,0 8.448,-3.744 3.36,-3.744 3.36,-10.656 0,-6.912 -3.36,-10.656 -3.36,-3.744 -8.448,-3.744 -5.088,0 -8.448,3.744 -3.36,3.744 -3.36,10.656 0,6.912 3.36,10.656 3.36,3.744 8.448,3.744 z m 46.176,9.408 q -7.488,0.288 -12.336,-3.264 -4.848,-3.552 -4.848,-10.272 0,-4.896 2.976,-8.352 2.976,-3.456 7.68,-5.424 4.704,-1.968 9.696,-2.064 2.496,-0.192 4.704,0.384 2.208,0.576 3.936,1.632 v -4.032 q 0,-4.512 -1.92,-5.856 -1.92,-1.344 -5.664,-1.344 -4.032,0 -8.496,1.488 -4.464,1.488 -7.632,3.696 l -4.896,-8.352 q 3.936,-2.496 9.504,-4.368 5.568,-1.872 11.52,-1.872 8.928,0 13.44,3.6 4.512,3.6 4.512,13.008 v 21.216 q 0,2.016 0.912,2.304 0.912,0.288 4.176,-0.672 v 6.816 q -1.44,0.672 -3.6,1.2 -2.16,0.528 -4.656,0.528 -2.976,0 -4.56,-1.008 -1.584,-1.008 -2.256,-3.408 -2.4,2.016 -5.568,3.12 -3.168,1.104 -6.624,1.296 z m -0.192,-9.408 q 5.376,-0.192 8.88,-2.112 3.504,-1.92 3.312,-5.472 -0.096,-2.304 -2.352,-3.168 -2.256,-0.864 -5.616,-0.672 -4.704,0.096 -7.776,2.352 -3.072,2.256 -2.976,5.04 0.192,4.32 6.528,4.032 z m 36.288,8.736 v -46.176 h 9.696 l 0.576,5.472 q 1.92,-2.688 5.088,-4.656 3.168,-1.968 7.488,-1.968 7.2,0 11.76,4.608 4.56,4.608 4.56,13.536 v 29.184 h -10.848 v -26.592 q 0,-5.472 -2.208,-8.208 -2.208,-2.736 -5.952,-2.736 -4.128,0 -6.72,2.832 -2.592,2.832 -2.592,8.4 v 26.304 z m 54.816,19.104 q -2.304,0 -4.32,-0.144 -2.016,-0.144 -3.648,-0.528 v -9.888 q 1.632,0.384 3.408,0.624 1.776,0.24 3.408,0.24 2.592,0 3.888,-0.576 1.296,-0.576 2.064,-1.92 0.768,-1.344 1.728,-3.648 l 1.248,-3.36 -18.24,-46.08 h 11.232 l 11.712,33.12 11.04,-33.12 h 11.04 l -18.816,52.608 q -2.304,6.336 -5.616,9.504 -3.312,3.168 -10.128,3.168 z"
   stroke-linecap="round"
   id="path28" />
</g><g
     transform="translate(53.4116,-2.1298)"
     id="g34"
     inkscape:export-filename="/Users/tejas.shah/thehigglers-logo for publisher.png"
     inkscape:export-xdpi="43.029903"
     inkscape:export-ydpi="43.029903">
<path
   style="opacity:1;fill:#114169;fill-rule:nonzero;stroke:#114169;stroke-width:5;stroke-linecap:butt;stroke-linejoin:miter;stroke-miterlimit:4;stroke-dasharray:none;stroke-dashoffset:0"
   transform="translate(-924.4003,-334.3763)"
   d="m 924.40027,287.552 v 93.64864"
   stroke-linecap="round"
   id="path32" />
</g></g><g
   id="g38"
   transform="matrix(0.95831853,0,0,0.94023983,518.79695,319.4518)">
<path
   style="opacity:1;fill:#000000;fill-opacity:0;fill-rule:nonzero;stroke:none;stroke-width:1;stroke-linecap:butt;stroke-linejoin:miter;stroke-miterlimit:4;stroke-dasharray:none;stroke-dashoffset:0"
   transform="translate(-870.9887,-336.5061)"
   d="M 399.11903,280.67978 V 392.33246 H 1342.8583 V 280.67978 Z"
   stroke-linecap="round"
   id="path36" />
</g>
</svg>
